<svg xmlns="http://www.w3.org/2000/svg" width="451" height="65"><g fill-rule="evenodd"><path d="M12.87 0L0 13.03V65h12.87V39.02h19.28V26H12.87V13.03h25.68V0zM70.7 0L57.84 13.03V65h12.88V39.03h12.8V65h12.87V13.03L83.51 0H70.7zm0 26h12.8V13.02H70.7V26zM437.71 0v26h-12.8V0h-12.87v65h12.87V39.02h12.8V65h12.88V0zM120.48 0v65h12.8V39.03h12.9V65h12.85V39.03l-12.85-13.04h12.85V13.03L146.18 0h-25.7zm12.8 26h12.9V13.02h-12.9V26zM193.58 0l-12.86 13.03V65h12.86V39.02h19.3V26h-19.3V13.03h25.7V0zM296.43 0l-.05 13.03h12.84V65h12.87V13.03h12.84V0zM251.4 0l-12.84 13.03h-.01V52h.02L251.4 65h25.7V51.99h-25.7V39.02h19.3V26h-19.3V13.03h25.7V0zM364.66 0L351.8 13.03V52L364.66 65h25.7V51.99h-25.7V13.03h25.68V0z"/></g></svg>