<svg xmlns="http://www.w3.org/2000/svg" xmlns:xlink="http://www.w3.org/1999/xlink" width="49" height="288" viewBox="0 0 49 288">
  <defs>
    <polygon id="sprite_footer-a" points="0 11.88 13.38 11.88 13.38 .131 0 .131"/>
    <polygon id="sprite_footer-c" points="0 .007 16.615 .007 16.615 16.879 0 16.879"/>
    <polygon id="sprite_footer-e" points="0 16.993 46.915 16.993 46.915 .121 0 .121"/>
    <polygon id="sprite_footer-g" points="0 16.993 46.915 16.993 46.915 .121 0 .121"/>
    <polygon id="sprite_footer-i" points="0 16.993 46.915 16.993 46.915 .121 0 .121"/>
  </defs>
  <g fill="none" fill-rule="evenodd">
    <g transform="translate(0 224)">
      <path fill="#F9F9F9" fill-rule="nonzero" d="M4.9,0 L44.1,0 C46.8059263,0 49,2.51796639 49,5.71428571 L49,26.2857143 C49,29.4820336 46.8059263,32 44.1,32 L4.9,32 C2.19407375,32 0,29.4820336 0,26.2857143 L0,5.71428571 C0,2.51796639 2.19407375,0 4.9,0"/>
      <path d="M22.6446927,5.05789474 L14.9709497,5.05789474 L22.6067039,5.05789474 C22.6256983,5.05789474 22.6256983,5.05789474 22.6446927,5.05789474 Z M8.07597765,25.5333333 L8.07597765,27 L9.70949721,27 C8.79776536,26.9807018 8.15195531,26.3631579 8.07597765,25.5333333 Z"/>
      <path fill="#EB2227" fill-rule="nonzero" d="M15.8067039,24.877193 L19.7385475,7.18070175 C20.0044693,6.02280702 21.4480447,5.07719298 22.5877095,5.05789474 L14.9519553,5.05789474 C13.7932961,5.05789474 12.3117318,6.00350877 12.0648045,7.18070175 L8.13296089,24.877193 C8.11396648,24.9929825 8.09497207,25.0894737 8.09497207,25.1859649 L8.09497207,25.5140351 C8.17094972,26.3631579 8.81675978,26.9807018 9.72849162,26.9807018 L17.4212291,26.9807018 C16.2625698,26.9807018 15.5597765,26.0350877 15.8067039,24.877193 Z"/>
      <path fill="#0C72BA" fill-rule="nonzero" d="M25.1139665,24.877193 L29.0458101,7.18070175 C29.3117318,6.02280702 30.7363128,5.09649123 31.8759777,5.05789474 L28.5709497,5.05789474 L22.6067039,5.05789474 C21.4670391,5.07719298 20.0234637,6.02280702 19.7575419,7.18070175 L15.8067039,24.877193 C15.5407821,26.0350877 16.2625698,26.9807018 17.3832402,27 L26.6905028,27 C25.5698324,26.9807018 24.8480447,26.0350877 25.1139665,24.877193 Z"/>
      <path fill="#069DA4" fill-rule="nonzero" d="M40.2335196,5.05789474 L31.9139665,5.05789474 C31.9139665,5.05789474 31.9139665,5.05789474 31.9139665,5.05789474 C31.9139665,5.05789474 31.8949721,5.05789474 31.8949721,5.05789474 C30.7553073,5.09649123 29.3307263,6.02280702 29.0648045,7.18070175 L25.1139665,24.877193 C24.8480447,26.0350877 25.5698324,26.9807018 26.6905028,27 L27.8111732,27 L32.9776536,27 L35.4469274,27 C36.5675978,26.9421053 37.6502793,26.0157895 37.9162011,24.877193 L41.8480447,7.18070175 C42.1139665,6.00350877 41.3921788,5.05789474 40.2335196,5.05789474 Z"/>
      <path fill="#FFF" fill-rule="nonzero" d="M22.7586592,17.9491228 L22.9106145,17.9491228 C23.0435754,17.9491228 23.1385475,17.9105263 23.1765363,17.8140351 L23.5564246,17.2350877 L24.5631285,17.2350877 L24.3541899,17.6017544 L25.5698324,17.6017544 L25.4178771,18.1807018 L23.9553073,18.1807018 C23.7843575,18.4315789 23.5944134,18.5473684 23.347486,18.5473684 L22.6067039,18.5473684 L22.7586592,17.9491228 Z M22.6067039,18.7789474 L25.2469274,18.7789474 L25.0759777,19.3964912 L24.0122905,19.3964912 L23.8413408,19.9947368 L24.8670391,19.9947368 L24.7150838,20.6315789 L23.6893855,20.6315789 L23.4424581,21.5192982 C23.3854749,21.6736842 23.4614525,21.7315789 23.6703911,21.7122807 L24.5061453,21.7122807 L24.3541899,22.2912281 L22.7396648,22.2912281 C22.4357542,22.2912281 22.3217877,22.1175439 22.4167598,21.7508772 L22.7206704,20.6122807 L22.0558659,20.6122807 L22.2268156,19.9947368 L22.8916201,19.9947368 L23.0625698,19.3964912 L22.4357542,19.3964912 L22.6067039,18.7789474 Z M26.8234637,17.2350877 L26.7854749,17.6017544 C26.7854749,17.6017544 27.2793296,17.2157895 27.7351955,17.2157895 L29.4067039,17.2157895 L28.7608939,19.5701754 C28.7039106,19.8403509 28.4759777,19.9754386 28.077095,19.9754386 L26.1776536,19.9754386 L25.7407821,21.6350877 C25.7217877,21.7315789 25.7597765,21.7701754 25.8547486,21.7701754 L26.2346369,21.7701754 L26.101676,22.2912281 L25.1519553,22.2912281 C24.7910615,22.2912281 24.6391061,22.1754386 24.6960894,21.9631579 L25.9497207,17.254386 L26.8234637,17.254386 L26.8234637,17.2350877 Z M28.2290503,17.9105263 L26.7284916,17.9105263 L26.5575419,18.5473684 C26.5575419,18.5473684 26.8044693,18.3736842 27.2223464,18.354386 C27.6402235,18.354386 28.1150838,18.354386 28.1150838,18.354386 L28.2290503,17.9105263 Z M27.6972067,19.377193 C27.8111732,19.3964912 27.8681564,19.3385965 27.8681564,19.2421053 L27.9631285,18.9140351 L26.4625698,18.9140351 L26.3296089,19.377193 L27.6972067,19.377193 Z M26.6905028,20.1491228 L27.5452514,20.1491228 L27.526257,20.5350877 L27.7541899,20.5350877 C27.8681564,20.5350877 27.9251397,20.4964912 27.9251397,20.4192982 L28.0011173,20.1684211 L28.722905,20.1684211 L28.627933,20.5350877 C28.5519553,20.8245614 28.3240223,20.9982456 27.9821229,20.9982456 L27.526257,20.9982456 L27.526257,21.654386 C27.526257,21.7508772 27.6022346,21.8087719 27.7921788,21.8087719 L28.2290503,21.8087719 L28.0960894,22.3298246 L27.0513966,22.3298246 C26.7664804,22.3491228 26.6145251,22.1947368 26.6145251,21.9052632 L26.6905028,20.1491228 Z M30.3564246,17.9877193 L30.5653631,17.2736842 L31.572067,17.2736842 L31.5340782,17.5438596 C31.5340782,17.5438596 32.0469274,17.2736842 32.4268156,17.2736842 C32.8067039,17.2736842 33.6804469,17.2736842 33.6804469,17.2736842 L33.4905028,17.9877193 L33.3005587,17.9877193 L32.350838,21.3649123 L32.5407821,21.3649123 L32.350838,22.0403509 L32.1608939,22.0403509 L32.0849162,22.3298246 L31.0972067,22.3298246 L31.1731844,22.0403509 L29.2357542,22.0403509 L29.4256983,21.3649123 L29.6156425,21.3649123 L30.5653631,17.9877193 L30.3564246,17.9877193 Z M31.4391061,17.9877193 L31.1731844,18.8947368 C31.1731844,18.8947368 31.6100559,18.7210526 31.9899441,18.6824561 C32.0659218,18.354386 32.1798883,17.9877193 32.1798883,17.9877193 L31.4391061,17.9877193 Z M31.0592179,19.3192982 L30.7932961,20.2842105 C30.7932961,20.2842105 31.2871508,20.0333333 31.6100559,20.0140351 C31.7050279,19.6473684 31.8,19.3192982 31.8,19.3192982 L31.0592179,19.3192982 Z M31.249162,21.345614 L31.4391061,20.6508772 L30.6793296,20.6508772 L30.4893855,21.345614 L31.249162,21.345614 Z M33.6994413,17.2157895 L34.649162,17.2157895 L34.6871508,17.5631579 C34.6871508,17.6596491 34.7251397,17.6982456 34.8391061,17.6982456 L35.0100559,17.6982456 L34.8391061,18.2964912 L34.1363128,18.2964912 C33.8703911,18.3157895 33.7374302,18.2 33.7184358,17.9877193 L33.6994413,17.2157895 Z M33.4145251,18.5087719 L36.4916201,18.5087719 L36.301676,19.1649123 L35.3139665,19.1649123 L35.1430168,19.7631579 L36.1307263,19.7631579 L35.9407821,20.4192982 L34.8581006,20.4192982 L34.6111732,20.8052632 L35.1430168,20.8052632 L35.2569832,21.5578947 C35.2759777,21.6350877 35.3329609,21.6736842 35.4469274,21.6736842 L35.6178771,21.6736842 L35.4469274,22.2912281 L34.8581006,22.2912281 C34.5541899,22.3105263 34.4022346,22.1947368 34.3832402,21.9824561 L34.2502793,21.2877193 L33.7564246,22.0210526 C33.6424581,22.2333333 33.4715084,22.3298246 33.224581,22.3105263 L32.3318436,22.3105263 L32.5027933,21.6929825 L32.7877095,21.6929825 C32.901676,21.6929825 32.996648,21.6350877 33.0916201,21.5385965 L33.8513966,20.4192982 L32.8826816,20.4192982 L33.0726257,19.7631579 L34.1363128,19.7631579 L34.3072626,19.1649123 L33.2435754,19.1649123 L33.4145251,18.5087719 Z M16.2435754,14.1087719 C16.1296089,14.6877193 15.8636872,15.1315789 15.4268156,15.4596491 C15.0089385,15.7684211 14.477095,15.922807 13.8122905,15.922807 C13.1854749,15.922807 12.7296089,15.7684211 12.4446927,15.4403509 C12.2357542,15.2087719 12.1407821,14.9192982 12.1407821,14.5719298 C12.1407821,14.4368421 12.1597765,14.2631579 12.1977654,14.1087719 L12.9005587,10.6736842 L13.9642458,10.6736842 L13.2804469,14.0701754 C13.2614525,14.1666667 13.2424581,14.2438596 13.2424581,14.3210526 C13.2424581,14.4947368 13.2804469,14.6298246 13.375419,14.745614 C13.5083799,14.9192982 13.698324,14.9964912 13.9832402,14.9964912 C14.3061453,14.9964912 14.572067,14.9192982 14.7810056,14.745614 C14.9899441,14.5912281 15.122905,14.3596491 15.1798883,14.0508772 L15.8826816,10.654386 L16.9273743,10.654386 L16.2435754,14.1087719 Z M17.2122905,12.7578947 L17.9530726,12.7578947 L17.8581006,13.2017544 L17.972067,13.0666667 C18.2189944,12.7964912 18.5039106,12.6807018 18.8648045,12.6807018 C19.1877095,12.6807018 19.4156425,12.777193 19.5486034,12.9508772 C19.6815642,13.1438596 19.7195531,13.3947368 19.6625698,13.722807 L19.2446927,15.8070175 L18.4849162,15.8070175 L18.8648045,13.9157895 C18.9027933,13.722807 18.8837989,13.5684211 18.8268156,13.4719298 C18.7698324,13.3754386 18.6558659,13.3368421 18.5039106,13.3368421 C18.3139665,13.3368421 18.1430168,13.3947368 18.0100559,13.5298246 C17.877095,13.645614 17.7821229,13.8385965 17.7441341,14.0508772 L17.4022346,15.8070175 L16.6234637,15.8070175 L17.2122905,12.7578947 Z M25.7977654,12.7578947 L26.5385475,12.7578947 L26.4625698,13.2017544 L26.5765363,13.0666667 C26.8234637,12.7964912 27.1083799,12.6807018 27.4692737,12.6807018 C27.7921788,12.6807018 28.0201117,12.777193 28.1530726,12.9508772 C28.2860335,13.1438596 28.3240223,13.3947368 28.2670391,13.722807 L27.849162,15.8070175 L27.0703911,15.8070175 L27.4502793,13.9157895 C27.4882682,13.722807 27.4692737,13.5684211 27.4122905,13.4719298 C27.3553073,13.3754386 27.2413408,13.3368421 27.0893855,13.3368421 C26.8994413,13.3368421 26.7284916,13.3947368 26.5955307,13.5298246 C26.4625698,13.645614 26.3675978,13.8385965 26.3296089,14.0508772 L25.9877095,15.8070175 L25.2089385,15.8070175 L25.7977654,12.7578947 Z M20.6882682,12.7578947 L21.5240223,12.7578947 L20.8782123,15.8263158 L20.0424581,15.8263158 L20.6882682,12.7578947 Z M20.9541899,11.6385965 L21.7899441,11.6385965 L21.6379888,12.3912281 L20.8022346,12.3912281 L20.9541899,11.6385965 Z M22.2458101,15.5947368 C22.0368715,15.3824561 21.922905,15.0929825 21.922905,14.745614 C21.922905,14.6877193 21.922905,14.6105263 21.9418994,14.5333333 C21.9418994,14.4561404 21.9608939,14.3789474 21.9798883,14.3017544 C22.0748603,13.8 22.2837989,13.4140351 22.6067039,13.1245614 C22.9296089,12.8350877 23.3094972,12.6807018 23.7653631,12.6807018 C24.1452514,12.6807018 24.4301676,12.777193 24.6581006,12.9894737 C24.8670391,13.2017544 24.9810056,13.4912281 24.9810056,13.8578947 C24.9810056,13.9157895 24.9810056,13.9929825 24.9620112,14.0701754 C24.9430168,14.1473684 24.9430168,14.2245614 24.9240223,14.3017544 C24.8290503,14.7842105 24.6201117,15.1894737 24.2972067,15.4789474 C23.9743017,15.7684211 23.5944134,15.9035088 23.1385475,15.9035088 C22.7586592,15.9035088 22.473743,15.7877193 22.2458101,15.5947368 Z M23.8223464,14.977193 C23.9743017,14.822807 24.0692737,14.5719298 24.1452514,14.2438596 C24.1642458,14.1859649 24.1642458,14.1473684 24.1642458,14.0894737 C24.1642458,14.0315789 24.1642458,13.9929825 24.1642458,13.9350877 C24.1642458,13.7421053 24.126257,13.6070175 24.0122905,13.4912281 C23.9173184,13.3947368 23.7843575,13.3368421 23.6134078,13.3368421 C23.3854749,13.3368421 23.1955307,13.4140351 23.0435754,13.5877193 C22.8916201,13.7614035 22.796648,13.9929825 22.7206704,14.3403509 C22.7206704,14.3982456 22.701676,14.4368421 22.701676,14.4947368 C22.701676,14.5526316 22.701676,14.5912281 22.701676,14.6298246 C22.701676,14.822807 22.7396648,14.9578947 22.8536313,15.0736842 C22.9486034,15.1701754 23.0815642,15.2280702 23.252514,15.2280702 C23.4994413,15.2280702 23.6893855,15.1508772 23.8223464,14.977193 Z M29.4826816,10.8473684 L31.6480447,10.8473684 C32.0659218,10.8473684 32.3888268,10.9438596 32.6167598,11.1368421 C32.8446927,11.3298246 32.9396648,11.6 32.9396648,11.9666667 L32.9396648,11.9859649 C32.9396648,12.0631579 32.9396648,12.1403509 32.9206704,12.2175439 C32.901676,12.2947368 32.901676,12.3912281 32.8826816,12.4684211 C32.7877095,12.9508772 32.5597765,13.3175439 32.2178771,13.6070175 C31.8759777,13.8964912 31.4581006,14.0315789 31.0022346,14.0315789 L29.8435754,14.0315789 L29.4826816,15.8263158 L28.4759777,15.8263158 L29.4826816,10.8473684 Z M30.0335196,13.1631579 L31.0022346,13.1631579 C31.249162,13.1631579 31.4581006,13.1052632 31.5910615,12.9894737 C31.7430168,12.8736842 31.8379888,12.6807018 31.8759777,12.4491228 C31.8759777,12.4105263 31.8949721,12.3719298 31.8949721,12.3333333 C31.8949721,12.2947368 31.8949721,12.2561404 31.8949721,12.2368421 C31.8949721,12.0631579 31.8379888,11.9280702 31.7050279,11.8508772 C31.5910615,11.7736842 31.3821229,11.7350877 31.1162011,11.7350877 L30.2994413,11.7350877 L30.0335196,13.1631579 Z M37.4793296,16.4245614 C37.1564246,17.1192982 36.852514,17.5245614 36.6815642,17.6982456 C36.5106145,17.8912281 36.1497207,18.3157895 35.2949721,18.277193 L35.3709497,17.7561404 C36.0927374,17.5245614 36.4726257,16.5210526 36.7005587,16.077193 L36.4346369,12.777193 L36.9854749,12.777193 L37.4603352,12.777193 L37.5173184,14.8421053 L38.3910615,12.777193 L39.2837989,12.777193 L37.4793296,16.4245614 Z M35.0100559,13.0087719 L34.6681564,13.2596491 C34.3072626,12.9701754 33.9653631,12.7964912 33.3195531,13.0859649 C32.4458101,13.4912281 31.7050279,16.6754386 34.1363128,15.6333333 L34.2692737,15.8070175 L35.2189944,15.8263158 L35.8458101,12.9315789 L35.0100559,13.0087719 Z M34.4592179,14.5912281 C34.3072626,15.054386 33.9653631,15.3631579 33.6994413,15.2666667 C33.4335196,15.1894737 33.3385475,14.745614 33.4905028,14.2824561 C33.6424581,13.8192982 33.9843575,13.5105263 34.2502793,13.6070175 C34.5162011,13.6842105 34.6111732,14.1280702 34.4592179,14.5912281 Z"/>
    </g>
    <g transform="translate(0 256)">
      <path fill="#F9F9F9" fill-rule="nonzero" d="M4.9,0 L44.1,0 C46.7941425,0 49,2.32089963 49,5.16129032 L49,26.8387097 C49,29.6791004 46.7941425,32 44.1,32 L4.9,32 C2.20684314,32 0,29.6791004 0,26.8387097 L0,5.16129032 C0,2.32089963 2.20684314,0 4.9,0"/>
      <g transform="translate(1 10)">
        <mask id="sprite_footer-b" fill="#fff">
          <use xlink:href="#sprite_footer-a"/>
        </mask>
        <path fill="#09BB07" fill-rule="nonzero" d="M4.86620972,7.562808 C4.80575259,7.59320229 4.73769956,7.61063657 4.66546105,7.61063657 C4.49835135,7.61063657 4.35278918,7.51899086 4.27652019,7.383528 L4.24722174,7.319808 L3.02939816,4.65992229 C3.01622161,4.63091657 3.00800564,4.59836229 3.00800564,4.56642514 C3.00800564,4.44392229 3.10783741,4.344408 3.23107694,4.344408 C3.28099282,4.344408 3.32718827,4.36091657 3.36454767,4.38853371 L4.80156709,5.40697371 C4.90666949,5.47532229 5.03207927,5.51543657 5.16694517,5.51543657 C5.24755467,5.51543657 5.32428872,5.50047086 5.39575215,5.47455086 L12.154704,2.48048229 C10.9432362,1.05951086 8.94799595,0.130710857 6.68999974,0.130710857 C2.99513912,0.130710857 3.10036551e-05,2.61486514 3.10036551e-05,5.67944229 C3.10036551e-05,7.35143657 0.901152244,8.85649371 2.31150852,9.87354514 C2.42482688,9.953928 2.4987706,10.0859966 2.4987706,10.2350366 C2.4987706,10.2842537 2.48822936,10.3296137 2.47536284,10.3765166 C2.36266455,10.7947851 2.1823783,11.4645394 2.17385229,11.4958594 C2.15990065,11.5483166 2.13788805,11.603088 2.13788805,11.658168 C2.13788805,11.7806709 2.23771982,11.8800309 2.36095935,11.8800309 C2.40932505,11.8800309 2.44885471,11.8621337 2.48977954,11.8386823 L3.95439221,10.997208 C4.06445519,10.9337966 4.18118395,10.894608 4.30953908,10.894608 C4.37790214,10.894608 4.44409495,10.9050994 4.50625728,10.9240766 C5.18957784,11.1195566 5.92668974,11.228328 6.68999974,11.228328 C10.3847053,11.228328 13.3799685,8.74401943 13.3799685,5.67944229 C13.3799685,4.75125943 13.1037259,3.87707657 12.6178986,3.10827086 L4.91504047,7.534728 L4.86620972,7.562808 Z" mask="url(#sprite_footer-b)"/>
      </g>
      <path fill="#494949" fill-rule="nonzero" d="M26.8972084,16.3551473 L26.8972084,15.7946325 L31.3047765,15.7946325 L31.3047765,16.3551473 L26.8972084,16.3551473 Z M26.8972084,14.6712676 L26.8972084,14.3933457 L31.3047765,14.3933457 L31.3047765,14.6712676 L26.8972084,14.6712676 Z M27.1726814,19.4379783 L27.1726814,16.915662 L31.3047765,16.915662 L31.3047765,19.4379783 L27.1726814,19.4379783 Z M27.5936487,19.0200635 L30.884078,19.0200635 L30.884078,17.3335767 L27.5936487,17.3335767 L27.5936487,19.0200635 Z M25.6520247,19.7182356 L25.1983343,19.7182356 L25.1983343,15.0195131 C24.9358928,15.4804334 24.6570667,15.9201189 24.3928852,16.2940182 L24.1424783,15.8822294 C24.9047188,14.8189621 25.5121042,13.5487595 25.9263559,12.1512868 L26.3462623,12.3834819 C26.1537085,12.9824978 25.9180911,13.574158 25.6520247,14.1230709 L25.6520247,19.7182356 Z M41.9049321,19.7182356 L41.4512417,19.7182356 L41.4512417,15.0195131 C41.1888001,15.4804334 40.9099741,15.9201189 40.6457926,16.2940182 L40.3953857,15.8822294 C41.1576262,14.8189621 41.7648666,13.5487595 42.1792633,12.1512868 L42.5991697,12.3834819 C42.4066159,12.9824978 42.1709985,13.574158 41.9049321,14.1230709 L41.9049321,19.7182356 Z M31.8557225,13.1488349 L31.8557225,13.5525736 L26.6217354,13.5525736 L26.6217354,13.1488349 L29.1794656,13.1488349 C29.1762404,13.1319426 29.1668335,13.108345 29.1515137,13.0781709 C29.0448128,12.8561211 28.9254799,12.6265922 28.7867956,12.3759157 L28.7812859,12.3658577 L29.1688493,12.1512868 L29.174359,12.1632791 C29.2138679,12.2487721 29.2969172,12.4158898 29.3771444,12.5773337 C29.4634189,12.7507699 29.5447212,12.9146638 29.5760327,12.9844251 L29.580333,12.9939674 L29.5707917,12.9992543 L29.2997392,13.1488349 L31.8557225,13.1488349 Z M20.2858562,12.7751306 L20.2858562,14.6736031 L17.5311261,14.6736031 L17.5311261,12.7751306 L17.9327653,12.7751306 L17.9327653,14.2529756 L18.7231725,14.2529756 L18.7231725,12.1512868 L19.1250885,12.1512868 L19.1250885,14.2529756 L19.8840786,14.2529756 L19.8840786,12.7751306 L20.2858562,12.7751306 Z M17.8065991,15.7922971 L17.8065991,15.5143752 L20.2858562,15.5143752 L20.2858562,15.7922971 L17.8065991,15.7922971 Z M18.3384673,17.4039867 C18.3810966,18.2634315 18.0999122,18.9447631 17.5031011,19.4285308 L17.4913851,19.4379783 L17.4836214,19.4250574 L17.2556531,19.0357648 L17.2651106,19.0290959 C17.7439146,18.6852347 17.9563557,18.0857351 17.8967875,17.2475472 L17.8967875,16.6354046 L20.0025653,16.6354046 L20.0025653,18.155202 L20.6312779,17.6244747 L20.6391826,17.6376734 L20.8368022,17.974727 L20.8288974,17.9815347 C20.3071817,18.4334865 19.9308576,18.7509504 19.7102295,18.9251734 L19.6985134,18.9343431 L19.4468308,18.5051764 L19.4517713,18.4985076 C19.5611678,18.3485979 19.5771186,18.2525947 19.592787,17.9387431 L19.592787,17.0387296 L18.3384673,17.0387296 L18.3384673,17.4039867 Z M15.6028151,14.2322595 C16.1056809,13.694681 16.5535796,12.98135 16.9101641,12.1512868 L17.2556531,12.378791 C16.8917992,13.2303689 16.4006665,14.0176933 15.8263818,14.6736031 L15.6028151,14.2322595 Z M15.6028151,16.6303667 L15.6089772,16.623403 C16.228771,15.9207878 16.73822,15.0808897 17.1229937,14.1268735 L17.1285826,14.1130884 L17.5311261,14.3427458 L17.5266837,14.3532623 C17.3557209,14.753031 17.173867,15.1239505 16.9858509,15.4559305 L16.9858509,19.7182356 L16.5696934,19.7182356 L16.5696934,16.136518 C16.3406921,16.4440543 16.1002265,16.7439163 15.8547451,17.0285722 L15.8427075,17.0424994 L15.8333927,17.0265825 L15.6028151,16.6303667 Z M23.3160593,14.0465885 L22.8828228,14.0465885 C22.7796907,15.6368862 22.4998581,16.8693424 22.051363,17.7098505 C22.2942751,18.1873452 22.7307813,18.7471714 23.2811824,19.2867292 L23.2882667,19.2935785 L23.2833622,19.302245 L23.0491693,19.7182356 L23.0377253,19.7062144 C22.5246534,19.1716887 22.0825614,18.5936909 21.8215297,18.1166156 C21.5923775,18.554552 21.1590048,19.0815295 20.5332642,19.6831504 L20.521684,19.6940534 L20.5137822,19.680215 L20.2858562,19.2751273 L20.2934855,19.2681382 C20.8844855,18.7276019 21.3313457,18.1923773 21.6218049,17.6774211 C21.3192206,17.0340054 21.1032835,16.15338 20.9795795,15.0594475 C20.9376183,15.1427575 20.8816245,15.2473143 20.8126881,15.3711609 L20.6294482,15.747174 L20.3798603,15.3033668 C20.8844855,14.4576868 21.2765781,13.3861194 21.5331141,12.1512868 L21.9460511,12.1519857 C21.8871963,12.6215128 21.7126756,13.1697371 21.5604979,13.6406621 L21.5603616,13.6408018 L23.3160593,13.6408018 L23.3160593,14.0465885 Z M21.8528644,17.2016038 C22.1920967,16.4308469 22.4055815,15.3696233 22.4874604,14.0465885 L21.4272572,14.0465885 C21.3677213,14.1697362 21.3174495,14.2937227 21.2778043,14.4154727 C21.3991922,15.5751026 21.5925138,16.5123397 21.8528644,17.2016038 Z M39.8444397,13.6663377 L36.4645923,13.6663377 L36.4645923,15.0937661 L36.4686908,15.0937661 L38.2834803,15.0937661 L38.6349899,15.2996026 C38.1662649,16.5037531 37.3871513,17.4370079 36.5140468,18.0903692 C37.0998506,18.4927678 37.7133872,18.7816587 38.2024678,18.9726839 C38.9068531,19.2480093 39.3716162,19.3717603 39.3716162,19.3717603 L39.196203,19.7095149 L39.1889624,19.7078538 C39.1874596,19.707577 39.1859569,19.7071617 39.1843175,19.7067464 C37.3827796,19.2715413 36.4206024,18.4920757 36.2100792,18.3568354 C34.6515788,19.3796505 33.0839253,19.7182356 33.0839253,19.7182356 L32.8341936,19.2799852 C34.1558041,19.0196096 35.1080085,18.5690395 35.8703184,18.0938298 C35.4600645,17.7530299 35.13902,17.4060009 34.8682497,17.0743369 C34.193783,16.2482224 33.8600333,15.4856445 33.8600333,15.4856445 L33.8597601,15.0937661 L35.9628066,15.0937661 L36.0319336,15.0937661 L36.0319336,13.6663377 L32.6821415,13.6663377 L32.6821415,13.2381922 L36.0319336,13.2381922 L36.0319336,12.1512868 L36.4645923,12.1512868 L36.4645923,13.2381922 L39.8444397,13.2381922 L39.8444397,13.6663377 Z M38.1304718,15.4698642 L34.288457,15.4698642 C34.7582749,16.4587653 35.4913493,17.2639778 36.2022921,17.8125522 C37.6950808,16.7338139 38.1304718,15.4698642 38.1304718,15.4698642 Z M45.4242035,19.2758724 C45.9411181,19.2758724 46.2156107,19.0659589 46.2156107,18.6180679 L46.2156107,14.4952026 L42.5991697,14.4952026 L42.5991697,14.0524141 L46.2156107,14.0524141 L46.2156107,12.1512868 L46.6553592,12.1512868 L46.6553592,14.0524141 L47.8331569,14.0524141 L47.8331569,14.4952026 L46.6553592,14.4952026 L46.6553592,18.6170757 C46.6658628,18.9806328 46.5804339,19.2570213 46.4020137,19.4378785 C46.2184117,19.6238383 45.9831323,19.7166765 45.5533271,19.7166765 C45.4704191,19.7166765 45.3443766,19.7182356 45.1704379,19.7182356 L45.1704379,19.2747385 C45.2511051,19.2754472 45.3345733,19.2758724 45.4242035,19.2758724 Z M44.6270532,17.7564341 C44.2882688,16.9764722 43.9781038,16.3074494 43.7010618,15.7583527 L44.1127749,15.5143752 C44.5134471,16.3277808 44.8372681,16.9901738 45.0784268,17.4893259 L44.6270532,17.7564341 Z"/>
    </g>
    <g fill-rule="nonzero" transform="translate(0 32)">
      <path fill="#14457C" d="M5,0 L44,0 C46.7805672,0 49,2.33518024 49,5.16129032 L49,26.8387097 C49,29.6648198 46.7805672,32 44,32 L5,32 C2.2184415,32 0,29.6648198 0,26.8387097 L0,5.16129032 C0,2.33518024 2.2184415,0 5,0"/>
      <path fill="#D82331" d="M28.6485,16.3055 C28.6485,22.8935 23.3415,28.2345 16.7945,28.2345 C10.2475,28.2345 4.9405,22.8935 4.9405,16.3055 C4.9405,9.7175 10.2475,4.3765 16.7945,4.3765 C23.3415,4.3765 28.6485,9.7175 28.6485,16.3055"/>
      <path fill="#F1AB3D" d="M32.8263,4.3763 C29.7633,4.3763 26.9723,5.5453 24.8683,7.4633 C24.4403,7.8553 24.0403,8.2773 23.6723,8.7273 L26.0663,8.7273 C26.3933,9.1273 26.6953,9.5493 26.9713,9.9903 L22.7673,9.9903 C22.5163,10.3963 22.2873,10.8173 22.0853,11.2533 L27.6533,11.2533 C27.8443,11.6623 28.0113,12.0843 28.1553,12.5163 L21.5823,12.5163 C21.4463,12.9283 21.3303,13.3493 21.2383,13.7793 L28.4993,13.7793 C28.6733,14.5933 28.7653,15.4393 28.7653,16.3053 C28.7653,17.6293 28.5513,18.9043 28.1553,20.0953 L21.5823,20.0953 C21.7263,20.5273 21.8943,20.9493 22.0843,21.3583 L27.6533,21.3583 C27.4503,21.7943 27.2223,22.2153 26.9703,22.6223 L22.7673,22.6223 C23.0423,23.0623 23.3443,23.4833 23.6723,23.8843 L26.0653,23.8843 C25.6983,24.3343 25.2983,24.7563 24.8683,25.1473 C26.9723,27.0653 29.7633,28.2343 32.8263,28.2343 C39.3733,28.2343 44.6803,22.8943 44.6803,16.3053 C44.6803,9.7173 39.3733,4.3763 32.8263,4.3763"/>
      <path fill="#F1AB3D" d="M43.3009,22.8363 L43.3439,22.8363 C43.3609,22.8363 43.3769,22.8373 43.3919,22.8293 C43.4049,22.8213 43.4119,22.8063 43.4119,22.7903 C43.4119,22.7773 43.4039,22.7623 43.3929,22.7563 C43.3789,22.7483 43.3569,22.7503 43.3419,22.7503 L43.3009,22.7503 L43.3009,22.8363 Z M43.3009,23.0283 L43.2219,23.0283 L43.2219,22.6903 L43.3639,22.6903 C43.3939,22.6903 43.4239,22.6903 43.4499,22.7063 C43.4779,22.7253 43.4929,22.7573 43.4929,22.7913 C43.4929,22.8293 43.4709,22.8653 43.4349,22.8793 L43.4969,23.0283 L43.4089,23.0283 L43.3579,22.8943 L43.3009,22.8943 L43.3009,23.0283 Z M43.3529,23.1523 C43.5129,23.1523 43.6439,23.0213 43.6439,22.8593 C43.6439,22.6963 43.5129,22.5663 43.3529,22.5663 C43.1919,22.5663 43.0619,22.6963 43.0619,22.8593 C43.0619,23.0213 43.1919,23.1523 43.3529,23.1523 Z M42.9699,22.8593 C42.9699,22.6463 43.1409,22.4743 43.3529,22.4743 C43.5649,22.4743 43.7359,22.6463 43.7359,22.8593 C43.7359,23.0723 43.5649,23.2443 43.3529,23.2443 C43.1409,23.2443 42.9699,23.0723 42.9699,22.8593 Z"/>
      <path fill="#FFF" d="M43.2999,19.0658 L43.3439,19.0658 C43.3599,19.0658 43.3779,19.0668 43.3919,19.0598 C43.4039,19.0508 43.4109,19.0348 43.4109,19.0208 C43.4109,19.0078 43.4039,18.9928 43.3929,18.9848 C43.3789,18.9778 43.3569,18.9798 43.3419,18.9798 L43.2999,18.9798 L43.2999,19.0658 Z M43.2999,19.2568 L43.2219,19.2568 L43.2219,18.9198 L43.3639,18.9198 C43.3939,18.9198 43.4239,18.9208 43.4499,18.9368 C43.4779,18.9548 43.4919,18.9878 43.4919,19.0208 C43.4919,19.0598 43.4709,19.0948 43.4349,19.1088 L43.4969,19.2568 L43.4089,19.2568 L43.3579,19.1238 L43.2999,19.1238 L43.2999,19.2568 Z M43.3519,19.3818 C43.5129,19.3818 43.6439,19.2508 43.6439,19.0888 C43.6439,18.9278 43.5129,18.7958 43.3519,18.7958 C43.1919,18.7958 43.0619,18.9278 43.0619,19.0888 C43.0619,19.2508 43.1919,19.3818 43.3519,19.3818 Z M42.9699,19.0888 C42.9699,18.8758 43.1419,18.7038 43.3519,18.7038 C43.5639,18.7038 43.7349,18.8758 43.7349,19.0888 C43.7349,19.3008 43.5639,19.4738 43.3519,19.4738 C43.1419,19.4738 42.9699,19.3008 42.9699,19.0888 Z"/>
      <path fill="#0B2D5A" d="M40.1476,18.5277 C39.7096,18.5277 39.4876,18.2007 39.4876,17.5577 C39.4876,16.5907 39.9026,15.9047 40.4856,15.9047 C40.9276,15.9047 41.1686,16.2427 41.1686,16.8687 C41.1686,17.8437 40.7466,18.5277 40.1476,18.5277 Z M41.7566,13.6137 L41.4706,15.3617 C41.1196,14.8957 40.7416,14.5587 40.2426,14.5587 C39.5926,14.5587 39.0016,15.0537 38.6156,15.7837 C38.0766,15.6707 37.5186,15.4797 37.5186,15.4797 L37.5186,15.4847 C37.5616,15.0767 37.5806,14.8287 37.5756,14.7437 L36.3926,14.7437 C36.2326,16.2667 35.9466,17.8097 35.7226,19.3337 L35.6636,19.6647 L36.9516,19.6647 C37.1256,18.5287 37.2576,17.5847 37.3556,16.8377 C37.7956,16.4367 38.0166,16.0887 38.4606,16.1107 C38.2636,16.5907 38.1486,17.1417 38.1486,17.7077 C38.1486,18.9377 38.7666,19.7497 39.7026,19.7497 C40.1736,19.7497 40.5356,19.5857 40.8886,19.2067 L40.8286,19.6637 L42.0456,19.6637 L43.0266,13.6137 L41.7566,13.6137 Z"/>
      <path fill="#0C2D5A" d="M35.295,19.7752 L34.229,19.7752 L34.253,19.2662 C33.928,19.6682 33.494,19.8602 32.904,19.8602 C32.207,19.8602 31.73,19.3122 31.73,18.5162 C31.73,17.3172 32.561,16.6202 33.988,16.6202 C34.134,16.6202 34.32,16.6332 34.512,16.6582 C34.552,16.4952 34.563,16.4262 34.563,16.3372 C34.563,16.0122 34.339,15.8912 33.737,15.8912 C33.108,15.8832 32.589,16.0412 32.375,16.1112 C32.389,16.0302 32.554,15.0052 32.554,15.0052 C33.195,14.8162 33.618,14.7442 34.094,14.7442 C35.199,14.7442 35.784,15.2442 35.783,16.1882 C35.786,16.4412 35.744,16.7532 35.68,17.1632 C35.567,17.8752 35.328,19.4042 35.295,19.7752 Z M34.358,17.5832 C34.224,17.5672 34.164,17.5632 34.072,17.5632 C33.343,17.5632 32.974,17.8152 32.974,18.3122 C32.974,18.6182 33.153,18.8142 33.435,18.8142 C33.958,18.8142 34.337,18.3112 34.358,17.5832 Z M30.964,14.9237 C31.321,14.9237 31.654,15.0177 32.113,15.2507 L32.324,13.9377 C32.135,13.8627 31.472,13.4247 30.91,13.4247 C30.049,13.4247 29.32,13.8557 28.809,14.5647 C28.062,14.3157 27.754,14.8187 27.378,15.3197 L27.043,15.3987 C27.068,15.2337 27.092,15.0697 27.084,14.9037 L25.902,14.9037 C25.741,16.4267 25.455,17.9697 25.231,19.4937 L25.172,19.8247 L26.46,19.8247 C26.675,18.4197 26.792,17.5197 26.863,16.9107 L27.349,16.6407 C27.422,16.3687 27.648,16.2777 28.103,16.2887 C28.043,16.6097 28.011,16.9477 28.011,17.2977 C28.011,18.9077 28.875,19.9097 30.26,19.9097 C30.616,19.9097 30.923,19.8627 31.398,19.7327 L31.623,18.3537 C31.196,18.5647 30.848,18.6637 30.53,18.6637 C29.782,18.6637 29.329,18.1087 29.329,17.1897 C29.329,15.8577 30.002,14.9237 30.964,14.9237 Z M24.0108,16.7435 C24.0178,16.6405 24.1458,15.8655 23.4148,15.8655 C23.0078,15.8655 22.7168,16.1785 22.5978,16.7435 L24.0108,16.7435 Z M24.7298,19.6615 C24.2898,19.7975 23.8648,19.8615 23.4168,19.8605 C21.9848,19.8595 21.2388,19.1065 21.2388,17.6655 C21.2388,15.9835 22.1878,14.7445 23.4758,14.7445 C24.5318,14.7445 25.2048,15.4375 25.2048,16.5265 C25.2048,16.8875 25.1578,17.2395 25.0478,17.7365 L22.5008,17.7365 C22.4138,18.4505 22.8678,18.7475 23.6118,18.7475 C24.0698,18.7475 24.4828,18.6525 24.9428,18.4375 L24.7298,19.6615 Z M20.7452,19.7694 C20.3932,19.8814 20.1182,19.9294 19.8212,19.9294 C19.1622,19.9294 18.8032,19.5494 18.8032,18.8494 C18.7942,18.6304 18.8982,18.0604 18.9802,17.5374 C19.0542,17.0774 19.5382,14.1794 19.5382,14.1794 L20.8172,14.1794 L20.6672,14.9234 L21.3242,14.9234 L21.1492,16.1064 L20.4912,16.1064 C20.3422,17.0424 20.1302,18.2074 20.1272,18.3624 C20.1272,18.6174 20.2632,18.7274 20.5682,18.7274 C20.7152,18.7274 20.8282,18.7124 20.9152,18.6804 L20.7452,19.7694 Z M15.7306,16.4105 C15.7306,17.0335 16.0306,17.4615 16.7106,17.7845 C17.2316,18.0315 17.3126,18.1045 17.3126,18.3275 C17.3126,18.6345 17.0826,18.7725 16.5736,18.7725 C16.1896,18.7725 15.8326,18.7125 15.4196,18.5795 C15.4196,18.5795 15.2516,19.6635 15.2436,19.7145 C15.5356,19.7795 15.7966,19.8385 16.5826,19.8605 C17.9406,19.8605 18.5676,19.3405 18.5676,18.2165 C18.5676,17.5395 18.3056,17.1435 17.6606,16.8455 C17.1216,16.5955 17.0596,16.5405 17.0596,16.3105 C17.0596,16.0445 17.2726,15.9075 17.6886,15.9075 C17.9416,15.9075 18.2866,15.9355 18.6136,15.9825 L18.7966,14.8415 C18.4636,14.7875 17.9586,14.7445 17.6646,14.7445 C16.2246,14.7445 15.7266,15.5015 15.7306,16.4105 Z M15.0631,19.7752 L13.9971,19.7752 L14.0211,19.2662 C13.6961,19.6682 13.2621,19.8602 12.6721,19.8602 C11.9751,19.8602 11.4971,19.3122 11.4971,18.5162 C11.4971,17.3172 12.3281,16.6202 13.7561,16.6202 C13.9021,16.6202 14.0891,16.6332 14.2801,16.6582 C14.3201,16.4952 14.3311,16.4262 14.3311,16.3372 C14.3311,16.0122 14.1061,15.8912 13.5051,15.8912 C12.8751,15.8832 12.3561,16.0412 12.1431,16.1112 C12.1571,16.0302 12.3221,15.0052 12.3221,15.0052 C12.9631,14.8162 13.3861,14.7442 13.8621,14.7442 C14.9671,14.7442 15.5521,15.2442 15.5511,16.1882 C15.5531,16.4412 15.5121,16.7532 15.4471,17.1632 C15.3351,17.8752 15.0961,19.4042 15.0631,19.7752 Z M14.1271,17.5832 C13.9921,17.5672 13.9321,17.5632 13.8401,17.5632 C13.1101,17.5632 12.7411,17.8152 12.7411,18.3122 C12.7411,18.6182 12.9211,18.8142 13.2021,18.8142 C13.7271,18.8142 14.1051,18.3112 14.1271,17.5832 Z"/>
      <polygon fill="#0C2D5A" points="10.85 19.852 9.563 19.852 10.301 15.201 8.655 19.852 7.777 19.852 7.669 15.228 6.894 19.852 5.689 19.852 6.696 13.802 8.546 13.802 8.598 17.547 9.847 13.802 11.846 13.802"/>
      <path fill="#FFF" d="M40.6593,18.3382 C41.2593,18.3382 41.6803,17.6552 41.6803,16.6802 C41.6803,16.0552 41.4403,15.7152 40.9983,15.7152 C40.4143,15.7152 40.0003,16.4012 40.0003,17.3692 C40.0003,18.0132 40.2223,18.3382 40.6593,18.3382 Z M42.5573,19.4752 L41.3413,19.4752 L41.4013,19.0172 C41.0483,19.3972 40.6863,19.5612 40.2153,19.5612 C39.2793,19.5612 38.6603,18.7502 38.6603,17.5192 C38.6603,15.8822 39.6203,14.5022 40.7553,14.5022 C41.2543,14.5022 41.6323,14.7072 41.9833,15.1732 L42.2693,13.4252 L43.5383,13.4252 L42.5573,19.4752 Z M36.7677,14.4202 C36.6067,15.9432 36.3207,17.4862 36.0967,19.0102 L36.0387,19.3412 L37.3257,19.3412 C37.7857,16.3322 37.8967,15.7442 38.6187,15.8172 C38.7337,15.2022 38.9477,14.6632 39.1077,14.3912 C38.5687,14.2772 38.2667,14.5842 37.8717,15.1672 C37.9047,14.9152 37.9607,14.6702 37.9507,14.4202 L36.7677,14.4202 Z M35.67,19.3983 L34.604,19.3983 L34.628,18.8893 C34.303,19.2913 33.868,19.4833 33.279,19.4833 C32.581,19.4833 32.104,18.9353 32.104,18.1393 C32.104,16.9403 32.935,16.2433 34.363,16.2433 C34.509,16.2433 34.695,16.2563 34.887,16.2813 C34.927,16.1183 34.938,16.0493 34.938,15.9603 C34.938,15.6353 34.714,15.5143 34.112,15.5143 C33.482,15.5063 32.964,15.6643 32.75,15.7343 C32.764,15.6533 32.929,14.6283 32.929,14.6283 C33.57,14.4393 33.992,14.3673 34.469,14.3673 C35.573,14.3673 36.159,14.8673 36.158,15.8113 C36.16,16.0633 36.119,16.3763 36.054,16.7863 C35.942,17.4983 35.703,19.0273 35.67,19.3983 Z M34.733,17.2063 C34.599,17.1903 34.539,17.1863 34.446,17.1863 C33.718,17.1863 33.348,17.4383 33.348,17.9353 C33.348,18.2413 33.528,18.4373 33.81,18.4373 C34.333,18.4373 34.712,17.9343 34.733,17.2063 Z M32.67,13.5506 L32.459,14.8636 C32,14.6316 31.667,14.5376 31.31,14.5376 C30.349,14.5376 29.675,15.4716 29.675,16.8046 C29.675,17.7226 30.128,18.2776 30.876,18.2776 C31.193,18.2776 31.543,18.1786 31.969,17.9676 L31.743,19.3456 C31.27,19.4766 30.963,19.5236 30.606,19.5236 C29.22,19.5236 28.358,18.5206 28.358,16.9116 C28.358,14.7486 29.55,13.2366 31.256,13.2366 C31.817,13.2366 32.482,13.4756 32.67,13.5506 Z M26.2775,14.4202 C26.1155,15.9432 25.8295,17.4862 25.6055,19.0102 L25.5475,19.3412 L26.8355,19.3412 C27.2955,16.3322 27.4055,15.7442 28.1275,15.8172 C28.2425,15.2022 28.4575,14.6632 28.6165,14.3912 C28.0775,14.2772 27.7765,14.5842 27.3815,15.1672 C27.4135,14.9152 27.4705,14.6702 27.4595,14.4202 L26.2775,14.4202 Z M24.3854,16.3665 C24.3924,16.2635 24.5204,15.4885 23.7894,15.4885 C23.3824,15.4885 23.0914,15.8015 22.9724,16.3665 L24.3854,16.3665 Z M25.1044,19.2845 C24.6644,19.4205 24.2404,19.4845 23.7914,19.4835 C22.3594,19.4825 21.6134,18.7295 21.6134,17.2885 C21.6134,15.6065 22.5624,14.3675 23.8514,14.3675 C24.9064,14.3675 25.5804,15.0605 25.5804,16.1495 C25.5804,16.5105 25.5334,16.8625 25.4224,17.3595 L22.8754,17.3595 C22.7884,18.0735 23.2424,18.3705 23.9874,18.3705 C24.4444,18.3705 24.8574,18.2755 25.3174,18.0605 L25.1044,19.2845 Z M21.1197,19.3924 C20.7677,19.5044 20.4927,19.5524 20.1957,19.5524 C19.5367,19.5524 19.1787,19.1724 19.1787,18.4724 C19.1687,18.2534 19.2727,17.6834 19.3547,17.1604 C19.4287,16.7004 19.9127,13.8024 19.9127,13.8024 L21.1917,13.8024 L21.0427,14.5464 L21.6997,14.5464 L21.5247,15.7294 L20.8657,15.7294 C20.7167,16.6654 20.5047,17.8304 20.5027,17.9854 C20.5027,18.2394 20.6377,18.3504 20.9437,18.3504 C21.0897,18.3504 21.2027,18.3354 21.2897,18.3034 L21.1197,19.3924 Z M16.1051,16.0335 C16.1051,16.6565 16.4051,17.0845 17.0851,17.4075 C17.6061,17.6545 17.6871,17.7275 17.6871,17.9505 C17.6871,18.2575 17.4581,18.3955 16.9481,18.3955 C16.5641,18.3955 16.2071,18.3355 15.7951,18.2025 C15.7951,18.2025 15.6261,19.2865 15.6181,19.3375 C15.9111,19.4025 16.1711,19.4605 16.9571,19.4835 C18.3151,19.4835 18.9421,18.9635 18.9421,17.8395 C18.9421,17.1625 18.6801,16.7655 18.0351,16.4685 C17.4961,16.2185 17.4341,16.1635 17.4341,15.9335 C17.4341,15.6675 17.6471,15.5305 18.0631,15.5305 C18.3161,15.5305 18.6611,15.5585 18.9881,15.6045 L19.1711,14.4645 C18.8381,14.4105 18.3331,14.3675 18.0391,14.3675 C16.5991,14.3675 16.1011,15.1245 16.1051,16.0335 Z M15.4376,19.3983 L14.3716,19.3983 L14.3956,18.8893 C14.0706,19.2913 13.6366,19.4833 13.0466,19.4833 C12.3496,19.4833 11.8716,18.9353 11.8716,18.1393 C11.8716,16.9403 12.7026,16.2433 14.1306,16.2433 C14.2766,16.2433 14.4636,16.2563 14.6556,16.2813 C14.6946,16.1183 14.7056,16.0493 14.7056,15.9603 C14.7056,15.6353 14.4816,15.5143 13.8806,15.5143 C13.2506,15.5063 12.7316,15.6643 12.5176,15.7343 C12.5316,15.6533 12.6966,14.6283 12.6966,14.6283 C13.3376,14.4393 13.7606,14.3673 14.2366,14.3673 C15.3416,14.3673 15.9266,14.8673 15.9256,15.8113 C15.9286,16.0633 15.8866,16.3763 15.8216,16.7863 C15.7096,17.4983 15.4706,19.0273 15.4376,19.3983 Z M14.5016,17.2063 C14.3666,17.1903 14.3076,17.1863 14.2146,17.1863 C13.4846,17.1863 13.1156,17.4383 13.1156,17.9353 C13.1156,18.2413 13.2956,18.4373 13.5776,18.4373 C14.1016,18.4373 14.4796,17.9343 14.5016,17.2063 Z"/>
      <polygon fill="#FFF" points="11.225 19.475 9.938 19.475 10.675 14.824 9.029 19.475 8.152 19.475 8.043 14.851 7.269 19.475 6.064 19.475 7.07 13.425 8.921 13.425 8.973 17.17 10.222 13.425 12.22 13.425"/>
    </g>
    <g fill-rule="nonzero" transform="translate(0 128)">
      <path fill="#2890C3" d="M5,0 L44,0 C46.7815136,0 49,2.33413728 49,5.16129032 L49,26.8387097 C49,29.6648198 46.7815136,32 44,32 L5,32 C2.21848637,32 0,29.6648198 0,26.8387097 L0,5.16129032 C0,2.33413728 2.21848637,0 5,0"/>
      <path fill="#FFF" d="M35.4308,20.5384 L34.6828,25.3044 C34.6678,25.3964 34.7398,25.4794 34.8328,25.4794 L35.5858,25.4794 C35.7098,25.4794 35.8168,25.3894 35.8358,25.2664 L36.5748,20.5864 C36.5888,20.4934 36.5178,20.4104 36.4238,20.4104 L35.5808,20.4104 C35.5058,20.4104 35.4428,20.4644 35.4308,20.5384 M34.4015,22.098 L33.5285,22.098 C33.4545,22.098 33.3895,22.153 33.3785,22.227 L33.3395,22.471 L33.2785,22.383 C33.0895,22.108 32.6685,22.016 32.2475,22.016 C31.2825,22.016 30.4585,22.747 30.2975,23.774 C30.2145,24.286 30.3335,24.776 30.6235,25.117 C30.8895,25.431 31.2695,25.561 31.7225,25.561 C32.5015,25.561 32.9315,25.062 32.9315,25.062 L32.8925,25.304 C32.8785,25.397 32.9495,25.48 33.0435,25.48 L33.8295,25.48 C33.9545,25.48 34.0605,25.389 34.0805,25.266 L34.5515,22.274 C34.5665,22.182 34.4955,22.098 34.4015,22.098 M33.1845,23.799 C33.1005,24.299 32.7045,24.634 32.1995,24.634 C31.9455,24.634 31.7435,24.553 31.6125,24.398 C31.4835,24.245 31.4345,24.027 31.4755,23.785 C31.5535,23.289 31.9575,22.944 32.4545,22.944 C32.7025,22.944 32.9035,23.026 33.0365,23.182 C33.1705,23.338 33.2225,23.558 33.1845,23.799 M28.9503,20.4095 L27.1273,20.4095 C27.0023,20.4095 26.8953,20.5005 26.8763,20.6245 L26.1383,25.3045 C26.1243,25.3965 26.1953,25.4795 26.2893,25.4795 L27.2243,25.4795 C27.3123,25.4795 27.3873,25.4165 27.4003,25.3305 L27.6093,24.0035 C27.6293,23.8805 27.7343,23.7895 27.8593,23.7895 L28.4363,23.7895 C29.6373,23.7895 30.3313,23.2075 30.5123,22.0545 C30.5943,21.5505 30.5153,21.1535 30.2803,20.8765 C30.0203,20.5715 29.5603,20.4095 28.9503,20.4095 M29.1613,22.1195 C29.0613,22.7745 28.5613,22.7745 28.0783,22.7745 L27.8033,22.7745 L27.9963,21.5515 C28.0073,21.4765 28.0713,21.4235 28.1453,21.4235 L28.2713,21.4235 C28.6013,21.4235 28.9123,21.4235 29.0723,21.6105 C29.1683,21.7225 29.1973,21.8885 29.1613,22.1195 M26.045,22.098 L25.167,22.098 C25.083,22.098 25.004,22.14 24.958,22.209 L23.747,23.994 L23.233,22.28 C23.201,22.172 23.103,22.098 22.99,22.098 L22.128,22.098 C22.024,22.098 21.95,22.201 21.984,22.299 L22.95,25.139 L22.041,26.423 C21.97,26.524 22.042,26.662 22.166,26.662 L23.042,26.662 C23.125,26.662 23.203,26.622 23.251,26.554 L26.17,22.337 C26.239,22.237 26.168,22.098 26.045,22.098 M21.3937,22.098 L20.5197,22.098 C20.4457,22.098 20.3817,22.153 20.3697,22.227 L20.3317,22.471 L20.2707,22.383 C20.0817,22.108 19.6597,22.016 19.2387,22.016 C18.2737,22.016 17.4497,22.747 17.2897,23.774 C17.2057,24.286 17.3247,24.776 17.6147,25.117 C17.8807,25.431 18.2617,25.561 18.7147,25.561 C19.4927,25.561 19.9237,25.062 19.9237,25.062 L19.8847,25.304 C19.8697,25.397 19.9407,25.48 20.0347,25.48 L20.8207,25.48 C20.9457,25.48 21.0517,25.389 21.0717,25.266 L21.5437,22.274 C21.5587,22.182 21.4867,22.098 21.3937,22.098 M20.1767,23.799 C20.0917,24.299 19.6957,24.634 19.1907,24.634 C18.9367,24.634 18.7347,24.553 18.6037,24.398 C18.4757,24.245 18.4267,24.027 18.4677,23.785 C18.5457,23.289 18.9487,22.944 19.4457,22.944 C19.6937,22.944 19.8947,23.026 20.0277,23.182 C20.1617,23.338 20.2147,23.558 20.1767,23.799 M15.942,20.4095 L14.118,20.4095 C13.993,20.4095 13.887,20.5005 13.868,20.6245 L13.13,25.3045 C13.116,25.3965 13.187,25.4795 13.28,25.4795 L14.151,25.4795 C14.276,25.4795 14.382,25.3885 14.402,25.2655 L14.601,24.0035 C14.62,23.8805 14.727,23.7895 14.851,23.7895 L15.428,23.7895 C16.629,23.7895 17.323,23.2075 17.504,22.0545 C17.586,21.5505 17.507,21.1535 17.272,20.8765 C17.012,20.5715 16.552,20.4095 15.942,20.4095 M16.152,22.1195 C16.053,22.7745 15.553,22.7745 15.069,22.7745 L14.794,22.7745 L14.987,21.5515 C14.999,21.4765 15.063,21.4235 15.137,21.4235 L15.264,21.4235 C15.593,21.4235 15.903,21.4235 16.064,21.6105 C16.16,21.7225 16.189,21.8885 16.152,22.1195 M29.7901,4.4788 C29.1061,3.6968 27.8721,3.3618 26.2921,3.3618 L21.7061,3.3618 C21.3831,3.3618 21.1081,3.5978 21.0581,3.9168 L19.1481,16.0768 C19.1101,16.3168 19.2951,16.5338 19.5371,16.5338 L22.3681,16.5338 L23.0791,12.0058 L23.0571,12.1478 C23.1081,11.8278 23.3801,11.5908 23.7031,11.5908 L25.0481,11.5908 C27.6911,11.5908 29.7611,10.5138 30.3651,7.3958 C30.3831,7.3028 30.3981,7.2128 30.4121,7.1258 C30.3361,7.0848 30.3361,7.0848 30.4121,7.1258 C30.5921,5.9738 30.4111,5.1888 29.7901,4.4788"/>
      <path fill="#FFF" d="M30.8019,7.4896 C30.7879,7.5776 30.7739,7.6666 30.7549,7.7586 C30.1519,10.8636 28.0849,11.9366 25.4469,11.9366 L24.1019,11.9366 C23.7799,11.9366 23.5079,12.1726 23.4579,12.4916 L22.5739,18.0976 C22.5409,18.3066 22.7029,18.4966 22.9139,18.4966 L25.2969,18.4966 C25.5789,18.4966 25.8189,18.2906 25.8629,18.0116 L25.8859,17.8896 L26.3349,15.0406 L26.3649,14.8826 C26.4079,14.6036 26.6489,14.3976 26.9309,14.3976 L27.2869,14.3976 C29.5959,14.3976 31.4039,13.4586 31.9319,10.7426 C32.1529,9.6076 32.0379,8.6596 31.4549,7.9946 C31.2789,7.7926 31.0589,7.6266 30.8019,7.4896 M28.7687,3.8363 C28.6767,3.8093 28.5817,3.7843 28.4837,3.7633 C28.3857,3.7413 28.2857,3.7223 28.1817,3.7053 C27.8187,3.6473 27.4227,3.6183 26.9977,3.6183 L23.4077,3.6183 C23.3187,3.6183 23.2347,3.6393 23.1597,3.6753 C22.9947,3.7553 22.8717,3.9113 22.8417,4.1043 L22.0787,8.9483 L22.0567,9.0893 C22.1067,8.7713 22.3787,8.5353 22.7007,8.5353 L24.0447,8.5353 C26.6837,8.5353 28.7497,7.4623 29.3547,4.3573 C29.3727,4.2653 29.3867,4.1763 29.4017,4.0883 C29.2477,4.0073 29.0827,3.9383 28.9047,3.8783 C28.8607,3.8633 28.8147,3.8503 28.7687,3.8363"/>
    </g>
    <g fill-rule="nonzero" transform="translate(0 96)">
      <path fill="#0066B2" d="M5,0 L44,0 C46.7805672,0 49,2.33518024 49,5.16129032 L49,26.8387097 C49,29.6648198 46.7805672,32 44,32 L5,32 C2.2184415,32 0,29.6648198 0,26.8387097 L0,5.16129032 C0,2.33518024 2.2184415,0 5,0"/>
      <path fill="#FFF" d="M45.5099,20.6283 L45.5889,20.6283 C45.6179,20.6283 45.6499,20.6313 45.6759,20.6163 C45.6989,20.6013 45.7119,20.5723 45.7119,20.5453 C45.7119,20.5233 45.6969,20.4953 45.6769,20.4833 C45.6529,20.4693 45.6129,20.4723 45.5859,20.4723 L45.5099,20.4723 L45.5099,20.6283 Z M45.5099,20.9753 L45.3669,20.9753 L45.3669,20.3623 L45.6259,20.3623 C45.6799,20.3623 45.7349,20.3633 45.7819,20.3943 C45.8319,20.4283 45.8599,20.4853 45.8599,20.5473 C45.8599,20.6163 45.8209,20.6823 45.7539,20.7053 L45.8659,20.9753 L45.7079,20.9753 L45.6139,20.7323 L45.5099,20.7323 L45.5099,20.9753 Z M45.6039,21.1993 C45.8979,21.1993 46.1349,20.9623 46.1349,20.6693 C46.1349,20.3763 45.8979,20.1403 45.6039,20.1403 C45.3119,20.1403 45.0739,20.3763 45.0739,20.6693 C45.0739,20.9623 45.3119,21.1993 45.6039,21.1993 Z M44.9059,20.6693 C44.9059,20.2843 45.2189,19.9723 45.6039,19.9723 C45.9889,19.9723 46.3019,20.2843 46.3019,20.6693 C46.3019,21.0553 45.9889,21.3673 45.6039,21.3673 C45.2189,21.3673 44.9059,21.0553 44.9059,20.6693 Z M37.7521,16.8587 L39.5231,12.0417 L40.5211,16.8587 L37.7521,16.8587 Z M41.4631,21.4107 L44.5591,21.4107 L41.8591,8.5417 L39.1481,8.5417 C37.8971,8.5417 37.5911,9.5007 37.5911,9.5007 L32.5631,21.4107 L36.0771,21.4107 L36.7801,19.4997 L41.0671,19.4997 L41.4631,21.4107 Z M32.8253,11.6361 L33.3063,8.8731 C33.3063,8.8731 31.8213,8.3121 30.2733,8.3121 C28.5993,8.3121 24.6253,9.0381 24.6253,12.5721 C24.6253,15.8971 29.2913,15.9391 29.2913,17.6841 C29.2913,19.4301 25.1063,19.1171 23.7253,18.0171 L23.2243,20.9061 C23.2243,20.9061 24.7293,21.6331 27.0313,21.6331 C29.3323,21.6331 32.8043,20.4491 32.8043,17.2271 C32.8043,13.8811 28.0973,13.5691 28.0973,12.1141 C28.0973,10.6591 31.3833,10.8461 32.8253,11.6361 Z"/>
      <polygon fill="#FFF" points="21.146 21.41 17.774 21.41 19.881 8.541 23.254 8.541"/>
      <path fill="#FFF" d="M5.9493,8.5418 L8.6063,8.5418 C10.0693,8.5418 10.2063,9.7008 10.2063,9.7008 L11.3413,15.4878 L11.3413,15.4868 L11.7213,17.3928 L14.9363,8.5418 L18.5663,8.5418 L13.2003,21.4108 L9.6873,21.4108 L6.7583,10.2298 C4.8553,9.0948 3.2303,8.7598 3.2293,8.7598 L3.2913,8.5418 L5.9493,8.5418 L8.6063,8.5418 C10.0693,8.5418 10.2063,9.7008 10.2063,9.7008 L11.3413,15.4878 C11.3413,15.4878 10.5783,13.1398 8.2353,11.2558 C5.7843,9.2858 3.2303,8.7598 3.2293,8.7598 L3.2913,8.5418 L5.9493,8.5418 Z"/>
      <path fill="#F9A533" d="M11.3409,15.4876 L10.2059,9.7006 C10.2059,9.7006 10.0699,8.5416 8.6069,8.5416 L3.2919,8.5416 L3.2299,8.7596 C3.2299,8.7596 5.7849,9.2856 8.2359,11.2556 C10.5779,13.1396 11.3409,15.4876 11.3409,15.4876"/>
    </g>
    <g transform="translate(0 160)">
      <path fill="#F9F9F9" fill-rule="nonzero" d="M4.9,0 L44.1,0 C46.7941425,0 49,2.32089963 49,5.16129032 L49,26.8387097 C49,29.6780633 46.7941425,32 44.1,32 L4.9,32 C2.2058575,32 0,29.6780633 0,26.8387097 L0,5.16129032 C0,2.32089963 2.2058575,0 4.9,0"/>
      <g transform="translate(1 7)">
        <g transform="translate(0 .114)">
          <mask id="sprite_footer-d" fill="#fff">
            <use xlink:href="#sprite_footer-c"/>
          </mask>
          <path fill="#00A0E8" fill-rule="nonzero" d="M13.9546078,0.00646241135 L2.66158514,0.00646241135 C1.19085214,0.00646241135 -1.18387909e-05,1.21635603 -1.18387909e-05,2.70970355 L-1.18387909e-05,14.1767461 C-1.18387909e-05,15.6692496 1.19085214,16.879505 2.66158514,16.879505 L13.9546078,16.879505 C15.4248673,16.879505 16.6153761,15.6692496 16.6153761,14.1767461 L16.6153761,2.70970355 C16.6153761,1.21635603 15.4248673,0.00646241135 13.9546078,0.00646241135" mask="url(#sprite_footer-d)"/>
        </g>
        <path fill="#FEFEFE" fill-rule="nonzero" d="M4.48963652,13.0958234 C1.90475491,13.0958234 1.14044257,11.0282135 2.41784811,9.89705035 C2.84404458,9.51485177 3.62339219,9.32809291 4.0384602,9.28613546 C5.57406977,9.13217092 6.99543501,9.72705035 8.6728733,10.558483 C7.49372972,12.1201922 5.99197909,13.0958234 4.48963652,13.0958234 M13.6799715,10.7151 C13.0152234,10.4891567 12.1230521,10.1433695 11.1291856,9.77829149 C11.7262159,8.72477376 12.2026088,7.52488723 12.5158632,6.2211922 L9.24089849,6.2211922 L9.24089849,5.02323475 L13.252828,5.02323475 L13.252828,4.35468865 L9.24089849,4.35468865 L9.24089849,2.35761064 L7.60347531,2.35761064 C7.31614786,2.35761064 7.31614786,2.64552553 7.31614786,2.64552553 L7.31614786,4.35468865 L3.25840227,4.35468865 L3.25840227,5.02323475 L7.31614786,5.02323475 L7.31614786,6.2211922 L3.96588841,6.2211922 L3.96588841,6.88985887 L10.4636088,6.88985887 C10.2257675,7.72153262 9.9065937,8.50268865 9.52763401,9.21222766 C7.41938212,8.5058234 5.1694199,7.93324894 3.75622343,8.28566738 C2.85245013,8.51185177 2.27021839,8.91551135 1.92795894,9.33834113 C0.358253652,11.2777879 1.48412267,14.2237312 4.79922091,14.2237312 C6.75936952,14.2237312 8.64753829,13.1137879 10.1110496,11.285022 C12.2936491,12.3505965 16.6152814,14.1800858 16.6152814,14.1800858 L16.6152814,11.5726957 C16.6152814,11.5726957 16.0724728,11.5289298 13.6799715,10.7151"/>
        <path fill="#3C3B3A" fill-rule="nonzero" d="M40.2646987,2.76570709 L45.0210514,2.76570709 L45.0210514,3.72457943 L46.7194443,3.72457943 L46.7194443,2.76570709 L46.7194443,2.58859362 L46.7190892,2.58172128 C46.7190892,2.32635957 46.5226836,2.11970709 46.2792781,2.11536667 L43.5299557,2.11536667 L43.5299557,1.22160071 L41.7521244,1.22160071 L41.7521244,2.11536667 L38.5663058,2.11536667 L38.5663058,2.44065745 L38.5663058,2.76570709 L38.5663058,3.72457943 L40.2646987,3.72457943 L40.2646987,2.76570709 Z"/>
        <polygon fill="#3C3B3A" fill-rule="nonzero" points="29.974 1.304 28.233 5.499 29.569 5.499 29.569 10.49 31.03 10.49 31.03 3.869 30.501 3.869 31.601 1.304"/>
        <path fill="#3C3B3A" fill-rule="nonzero" d="M46.9148791,10.2616702 L46.381068,8.42554965 C46.3455516,8.30859929 46.2414887,8.22359929 46.1177733,8.22347872 L44.7033929,8.22347872 L45.1132519,9.63351418 L43.4504937,9.63351418 L43.4504937,6.90242199 L46.715869,6.90242199 L46.715869,6.25208156 L43.4504937,6.25208156 L43.4504937,4.9665922 L46.715869,4.9665922 L46.715869,4.31637234 L43.4504937,4.31637234 L41.831539,4.31637234 L38.5662821,4.31637234 L38.5662821,4.9665922 L41.831539,4.9665922 L41.831539,6.25208156 L38.5662821,6.25208156 L38.5662821,6.90242199 L41.831539,6.90242199 L41.831539,9.63351418 L38.5662821,9.63351418 L38.5662821,10.2838546 L46.9148791,10.2838546 L46.9077758,10.2616702 L46.9148791,10.2616702 Z M33.7105902,4.74275887 C33.655303,4.62737589 33.5418874,4.54792199 33.4102401,4.54683688 L32.1453836,4.54683688 L33.1306078,7.70678723 L34.627031,7.70678723 L33.7105902,4.74275887 Z"/>
        <path fill="#3C3B3A" fill-rule="nonzero" d="M36.912261,1.38041206 L35.3940544,1.38041206 L35.3940544,2.99601489 L31.651931,2.99601489 L31.651931,3.64623475 L35.3940544,3.64623475 L35.3940544,9.45492979 C35.380795,9.58767447 35.2777975,9.69124184 35.1489914,9.69835532 L34.377339,9.69835532 L34.377339,10.3716035 L36.3451829,10.3716035 C36.6565431,10.3581 36.9052761,10.0953837 36.912261,9.7686461 L36.912261,9.69835532 L36.912261,3.64623475 L37.5289436,3.64623475 L37.5289436,2.99601489 L36.912261,2.99601489 L36.912261,1.38041206 Z M27.4384579,4.32383546 L24.5214982,4.32383546 L24.5214982,3.25946667 L27.9037224,3.25946667 L27.9037224,2.59658723 L24.5214982,2.59658723 L24.5214982,1.24767943 L23.0141834,1.24767943 L23.0138282,1.24804113 C22.8487955,1.24804113 22.7151355,1.38874326 22.7151355,1.56284255 L22.7151355,1.56320426 L22.7151355,2.59658723 L19.3571809,2.59658723 L19.3571809,3.25946667 L22.7151355,3.25946667 L22.7151355,4.32383546 L19.8810474,4.32383546 L19.8810474,4.98647376 L25.5266116,4.98647376 C25.5266116,4.98647376 25.2137123,6.23036738 23.6650801,7.56721844 C22.2778106,6.49766525 21.8140851,5.6456156 21.8140851,5.6456156 L20.299667,5.6456156 C20.9120877,6.72710496 21.7829491,7.59326099 22.7203446,8.2802539 C21.8591909,8.85017589 20.7424378,9.39984255 19.2982237,9.83919007 L19.2982237,10.6333674 C19.2982237,10.6333674 21.5261657,10.2051121 23.6795234,8.91299149 C25.8363144,10.1949844 28.0024579,10.6333674 28.0024579,10.6333674 L28.0024579,9.88199149 C26.6161355,9.36777163 25.5178509,8.80267234 24.655395,8.25746667 C25.9046242,7.31487092 26.9994756,6.03540993 27.4384579,4.32383546 Z M21.967871,12.8420894 L22.4907904,14.4386426 L21.426128,14.4386426 L21.967871,12.8420894 Z M22.6516796,14.9240468 L22.9037275,15.699295 L23.6106217,15.699295 L22.2183798,11.8498199 L21.6781758,11.8498199 L20.2907879,15.699295 L20.9982741,15.699295 L21.2614504,14.9240468 L22.6516796,14.9240468 Z"/>
        <polygon fill="#3C3B3A" fill-rule="nonzero" points="25.841 11.85 25.841 15.699 28.13 15.699 28.13 15.175 26.521 15.175 26.521 11.85"/>
        <mask id="sprite_footer-f" fill="#fff">
          <use xlink:href="#sprite_footer-e"/>
        </mask>
        <polygon fill="#3C3B3A" fill-rule="nonzero" points="30.624 15.699 31.305 15.699 31.305 11.85 30.624 11.85" mask="url(#sprite_footer-f)"/>
        <g>
          <mask id="sprite_footer-h" fill="#fff">
            <use xlink:href="#sprite_footer-g"/>
          </mask>
          <path fill="#3C3B3A" fill-rule="nonzero" d="M35.4917244,13.6904135 L34.7407899,13.6904135 L34.7407899,12.3732149 L35.4917244,12.3732149 C35.8691451,12.3732149 36.0946741,12.7093567 36.0946741,13.034527 C36.0946741,13.3524631 35.8833516,13.6904135 35.4917244,13.6904135 Z M35.5299637,11.8497113 L34.0606514,11.8497113 L34.0606514,15.6993071 L34.7407899,15.6993071 L34.7407899,14.2195837 L35.5299637,14.2195837 C36.2631401,14.2195837 36.7751678,13.7322504 36.7751678,13.034527 C36.7751678,12.3369241 36.2631401,11.8497113 35.5299637,11.8497113 Z M40.0844531,12.8420894 L40.6074909,14.4386426 L39.5425917,14.4386426 L40.0844531,12.8420894 Z M40.7682617,14.9240468 L41.0205463,15.699295 L41.7273222,15.699295 L40.334962,11.8498199 L39.7947579,11.8498199 L38.4074884,15.699295 L39.1150929,15.699295 L39.3780325,14.9240468 L40.7682617,14.9240468 Z" mask="url(#sprite_footer-h)"/>
        </g>
        <g>
          <mask id="sprite_footer-j" fill="#fff">
            <use xlink:href="#sprite_footer-i"/>
          </mask>
          <polygon fill="#3C3B3A" fill-rule="nonzero" points="45.515 11.85 44.773 13.49 44.02 11.85 43.285 11.85 44.43 14.118 44.43 15.699 45.105 15.699 45.105 14.118 45.109 14.109 46.25 11.85" mask="url(#sprite_footer-j)"/>
        </g>
      </g>
    </g>
    <g fill-rule="nonzero" transform="translate(0 64)">
      <rect width="49" height="32" fill="#F9F9F9" rx="5"/>
      <g fill="#1A1918" transform="translate(3 6)">
        <polygon points="2.828 0 4.848 0 4.848 8.361 2.828 8.361"/>
        <polygon points="5.656 0 6.262 0 6.262 8.361 5.656 8.361"/>
        <polygon points="6.666 0 7.676 0 7.676 8.361 6.666 8.361"/>
        <polygon points="9.09 0 9.696 0 9.696 8.361 9.09 8.361"/>
        <polygon points="9.898 0 10.504 0 10.504 8.361 9.898 8.361"/>
        <polygon points="1.414 0 2.02 0 2.02 19.169 1.414 19.169"/>
        <polygon points="0 0 1.01 0 1.01 19.169 0 19.169"/>
        <polygon points="13.736 0 15.756 0 15.756 8.361 13.736 8.361"/>
        <polygon points="16.362 0 16.968 0 16.968 8.361 16.362 8.361"/>
        <polygon points="17.574 0 18.584 0 18.584 8.361 17.574 8.361"/>
        <polygon points="19.796 0 20.402 0 20.402 8.361 19.796 8.361"/>
        <polygon points="20.806 0 21.412 0 21.412 8.361 20.806 8.361"/>
        <polygon points="12.12 0 12.726 0 12.726 8.361 12.12 8.361"/>
        <polygon points="10.908 0 11.918 0 11.918 8.361 10.908 8.361"/>
        <polygon points="21.816 0 22.825 0 22.825 8.361 21.816 8.361"/>
        <polygon points="24.239 0 24.845 0 24.845 8.361 24.239 8.361"/>
        <polygon points="25.047 0 25.653 0 25.653 8.361 25.047 8.361"/>
        <polygon points="27.269 0 27.875 0 27.875 8.361 27.269 8.361"/>
        <polygon points="26.057 0 27.067 0 27.067 8.361 26.057 8.361"/>
        <polygon points="28.885 0 29.491 0 29.491 8.361 28.885 8.361"/>
        <polygon points="29.693 0 30.299 0 30.299 8.361 29.693 8.361"/>
        <polygon points="31.915 0 32.521 0 32.521 8.361 31.915 8.361"/>
        <polygon points="30.501 0 31.511 0 31.511 8.361 30.501 8.361"/>
        <polygon points="33.127 0 35.147 0 35.147 8.361 33.127 8.361"/>
        <polygon points="35.753 0 36.359 0 36.359 8.361 35.753 8.361"/>
        <polygon points="36.965 0 37.975 0 37.975 8.361 36.965 8.361"/>
        <polygon points="39.187 0 39.793 0 39.793 8.361 39.187 8.361"/>
        <polygon points="40.197 0 40.803 0 40.803 19.169 40.197 19.169"/>
        <polygon points="41.409 0 42.419 0 42.419 19.169 41.409 19.169"/>
        <path d="M3.02993101,18.9650263 L3.02993101,9.17662561 L6.64126611,9.17662561 C7.37612215,9.17662561 7.96534782,9.2743581 8.41117787,9.47247472 C8.85477317,9.67097015 9.20190233,9.97628946 9.4529378,10.3884326 C9.706208,10.7986818 9.83135324,11.2293866 9.83135324,11.680547 C9.83135324,12.0976147 9.71961642,12.4915751 9.49763254,12.8605341 C9.27602112,13.229872 8.94006564,13.5283728 8.48939367,13.7564152 C9.07191513,13.9295305 9.51997992,14.2257584 9.83135324,14.6447202 C10.1449614,15.0617879 10.3017654,15.5561324 10.3017654,16.1258597 C10.3017654,16.5861116 10.2056718,17.0122706 10.0149742,17.406231 C9.82464906,17.8005702 9.58962922,18.1036167 9.30954217,18.3180221 C9.02945513,18.5297758 8.6778565,18.6915268 8.25660855,18.8010024 C7.83312588,18.9100991 7.31578425,18.9650263 6.70197647,18.9650263 L3.02993101,18.9650263 Z M4.30671078,13.2912389 L6.38799591,13.2912389 C6.95263948,13.2912389 7.35824425,13.2526005 7.60257551,13.1775965 C7.9273573,13.0794852 8.17131609,12.9154613 8.33482435,12.6877977 C8.49833261,12.4597552 8.58139034,12.1748915 8.58139034,11.8309338 C8.58139034,11.5051588 8.50503683,11.2180223 8.35046752,10.9717971 C8.19813293,10.7236778 7.97875625,10.5524565 7.69419973,10.4615426 C7.40964321,10.3702499 6.92135315,10.3247929 6.23119186,10.3247929 L4.30671078,10.3247929 L4.30671078,13.2912389 Z M4.30671078,17.8164802 L6.70383875,17.8164802 C7.11614774,17.8164802 7.40517374,17.8005702 7.57315147,17.7687504 C7.8644122,17.716096 8.11097819,17.627455 8.30800751,17.5020695 C8.50503683,17.376684 8.66668281,17.1944773 8.79406282,16.9554494 C8.92181529,16.7160427 8.98476038,16.4402704 8.98476038,16.1281326 C8.98476038,15.7614464 8.89276371,15.4447628 8.70690808,15.1735362 C8.52328718,14.9023097 8.26778224,14.7132844 7.94076572,14.6038089 C7.61561148,14.4943334 7.14519932,14.439785 6.53362628,14.439785 L4.30671078,14.439785 L4.30671078,17.8164802 Z M11.5137379,15.294188 C11.5137379,13.9939976 11.8686233,13.0303227 12.5798682,12.4039152 C13.1717124,11.8839142 13.8965926,11.6237258 14.7500865,11.6237258 C15.6964476,11.6237258 16.4725522,11.9403135 17.075452,12.5738649 C17.6761407,13.2047843 17.9775907,14.0801005 17.9775907,15.1949254 C17.9775907,16.0995691 17.8445547,16.8094475 17.5784828,17.3275685 C17.3124108,17.8453134 16.924727,18.248004 16.4146944,18.5352641 C15.9072414,18.8225242 15.3507752,18.9650263 14.7500865,18.9650263 C13.7834568,18.9650263 13.0032985,18.6506945 12.407032,18.0197751 C11.8107655,17.3884796 11.5137379,16.479324 11.5137379,15.294188 Z M12.710693,15.29682 C12.710693,16.1965758 12.9037979,16.8707347 13.2892705,17.3162886 C13.6773228,17.7640985 14.1626645,17.9878155 14.7500865,17.9878155 C15.3308751,17.9878155 15.8140057,17.7640985 16.202058,17.3140326 C16.5875307,16.8639667 16.7806355,16.178528 16.7806355,15.2580925 C16.7806355,14.3899203 16.5853195,13.7315532 16.1976357,13.2859992 C15.8095834,12.8381893 15.3264528,12.6144723 14.7500865,12.6144723 C14.1626645,12.6144723 13.6773228,12.8359333 13.2892705,13.2814873 C12.9037979,13.7270413 12.710693,14.3989442 12.710693,15.29682 Z"/>
        <polygon points="19.392 9.177 20.604 9.177 20.604 18.965 19.392 18.965"/>
        <path d="M27.2077303,16.5360992 L28.4404244,16.698905 C28.2485552,17.4155513 27.8895982,17.9742797 27.365431,18.3702023 C26.8416393,18.765749 26.1732886,18.9650263 25.3577505,18.9650263 C24.3326957,18.9650263 23.5194104,18.6484386 22.9186457,18.0148871 C22.317881,17.3839677 22.0174987,16.4951157 22.0174987,15.3532192 C22.0174987,14.1725952 22.3201339,13.2544157 22.9276572,12.6031925 C23.5351805,11.9493374 24.3236842,11.6237258 25.2924173,11.6237258 C26.2296102,11.6237258 26.9952098,11.9425695 27.5892159,12.5828888 C28.183222,13.2228321 28.4813515,14.1229639 28.4813515,15.2829082 C28.4813515,15.3532192 28.4790986,15.4596258 28.4745929,15.5994959 L23.2370511,15.5994959 C23.2824839,16.3710374 23.4991346,16.9632294 23.8922601,17.3726879 C24.2827571,17.7821463 24.7727559,17.9878155 25.3577505,17.9878155 C25.7936804,17.9878155 26.16653,17.8727611 26.4736709,17.6419002 C26.7830647,17.4110393 27.0267499,17.0425643 27.2077303,16.5360992 Z M23.3050125,14.6226611 L27.2212475,14.6226611 C27.1690561,14.0300932 27.0177385,13.5867952 26.7718004,13.2905112 C26.3944451,12.8314214 25.9021935,12.6005605 25.2991759,12.6005605 C24.75248,12.6005605 24.2940214,12.784046 23.9215474,13.1502651 C23.5509506,13.5168601 23.3455641,14.0075335 23.3050125,14.6226611 Z M32.5604153,17.8064468 L32.7232549,18.8591205 C32.38855,18.9289732 32.0873156,18.9650263 31.8251928,18.9650263 C31.393085,18.9650263 31.0583801,18.8974268 30.8184455,18.759599 C30.5811435,18.6217713 30.4137911,18.4433838 30.3163882,18.2195545 C30.2189853,17.9961008 30.1716002,17.5262846 30.1716002,16.810106 L30.1716002,12.7575188 L29.2893331,12.7575188 L29.2893331,11.8359129 L30.1716002,11.8359129 L30.1716002,10.0967293 L31.3660077,9.38055063 L31.3660077,11.8359129 L32.5604153,11.8359129 L32.5604153,12.7575188 L31.3660077,12.7575188 L31.3660077,16.878081 C31.3660077,17.2190826 31.3863156,17.4380298 31.429188,17.5352979 C31.4698039,17.6321904 31.537873,17.7091787 31.6326434,17.7677649 C31.7277899,17.8244733 31.8635522,17.8537664 32.0399304,17.8537664 C32.1711798,17.8537664 32.3453016,17.8379932 32.5604153,17.8064468 Z M33.1272457,15.294188 C33.1272457,13.9939976 33.4817828,13.0303227 34.1934369,12.4039152 C34.7853148,11.8839142 35.5102363,11.6237258 36.3637789,11.6237258 C37.310194,11.6237258 38.0859742,11.9403135 38.6889084,12.5738649 C39.2896314,13.2047843 39.5910985,14.0801005 39.5910985,15.1949254 C39.5910985,16.0995691 39.458055,16.8094475 39.1923364,17.3275685 C38.9262493,17.8453134 38.5381749,18.248004 38.0284817,18.5352641 C37.5206312,18.8225242 36.9641333,18.9650263 36.3637789,18.9650263 C35.397094,18.9650263 34.6168912,18.6506945 34.0205907,18.0197751 C33.4242903,17.3884796 33.1272457,16.479324 33.1272457,15.294188 Z M34.3242691,15.29682 C34.3242691,16.1965758 34.5170164,16.8707347 34.9028796,17.3162886 C35.2905855,17.7640985 35.7763235,17.9878155 36.3637789,17.9878155 C36.9442321,17.9878155 37.4277588,17.7640985 37.8154646,17.3140326 C38.2013278,16.8639667 38.394075,16.178528 38.394075,15.2580925 C38.394075,14.3899203 38.1991165,13.7315532 37.8110421,13.2859992 C37.4229677,12.8381893 36.9398095,12.6144723 36.3637789,12.6144723 C35.7763235,12.6144723 35.2905855,12.8359333 34.9028796,13.2814873 C34.5170164,13.7270413 34.3242691,14.3989442 34.3242691,15.29682 Z"/>
      </g>
    </g>
    <g fill-rule="nonzero" transform="translate(0 192)">
      <path fill="#F9F9F9" d="M4.9,0 L44.1,0 C46.8059263,0 49,2.51796639 49,5.71428571 L49,26.2857143 C49,29.4820336 46.8059263,32 44.1,32 L4.9,32 C2.19407375,32 0,29.4820336 0,26.2857143 L0,5.71428571 C0,2.51796639 2.19407375,0 4.9,0"/>
      <polygon fill="#0B0B0A" points="17.493 21.432 20.551 21.432 20.551 15.793 17.493 15.793"/>
      <path fill="#0B0B0A" d="M20.7818,12.974 C20.7818,14.036 20.0068,14.897 19.0518,14.897 C18.0958,14.897 17.3218,14.036 17.3218,12.974 C17.3218,11.914 18.0958,11.053 19.0518,11.053 C20.0068,11.053 20.7818,11.914 20.7818,12.974"/>
      <path fill="#0B0B0A" d="M26.1349,6.6224 C28.2609,6.6224 30.0319,7.2614 31.2579,8.4724 C32.6439,9.8404 33.3469,11.9124 33.3469,14.6324 C33.3469,20.0224 30.9879,22.6434 26.1349,22.6434 L16.4779,22.6434 L16.4779,6.6224 L26.1349,6.6224 Z M26.3409,5.3944 L15.3739,5.3944 L15.3739,23.8684 L26.3409,23.8684 L26.3409,23.8664 C28.7379,23.8294 30.6349,23.1694 31.9829,21.8954 C33.6199,20.3484 34.4509,17.9044 34.4509,14.6324 C34.4509,13.0684 34.2329,11.6654 33.8009,10.4624 C33.3899,9.3114 32.7809,8.3334 31.9909,7.5544 C30.6019,6.1834 28.6519,5.4414 26.3409,5.3984 L26.3409,5.3944 Z"/>
      <path fill="#BB205E" d="M25.8331,21.4388 L21.9541,21.4388 L21.9541,8.1148 L25.8331,8.1148 L25.6761,8.1148 C28.9091,8.1148 32.3521,9.5328 32.3521,14.7928 C32.3521,20.3558 28.9091,21.4388 25.6761,21.4388 L25.8331,21.4388"/>
      <path fill="#FFF" d="M21.8683,12.097 L21.8683,14.217 L22.3043,14.217 C22.4673,14.217 22.5843,14.206 22.6573,14.185 C22.7513,14.16 22.8303,14.116 22.8923,14.054 C22.9563,13.992 23.0063,13.888 23.0463,13.744 C23.0853,13.6 23.1063,13.407 23.1063,13.159 C23.1063,12.911 23.0853,12.721 23.0463,12.588 C23.0063,12.456 22.9513,12.353 22.8803,12.279 C22.8093,12.205 22.7193,12.154 22.6103,12.129 C22.5293,12.108 22.3693,12.097 22.1313,12.097 L21.8683,12.097 Z M21.2863,11.555 L22.3503,11.555 C22.5913,11.555 22.7733,11.575 22.8993,11.616 C23.0703,11.67 23.2143,11.77 23.3353,11.91 C23.4553,12.053 23.5473,12.225 23.6103,12.43 C23.6743,12.634 23.7053,12.887 23.7053,13.188 C23.7053,13.452 23.6763,13.678 23.6173,13.87 C23.5433,14.104 23.4413,14.292 23.3073,14.436 C23.2053,14.546 23.0703,14.632 22.8973,14.692 C22.7703,14.737 22.5983,14.76 22.3833,14.76 L21.2863,14.76 L21.2863,11.555 Z"/>
      <path fill="#FFF" d="M22.3502,11.6419 C22.5822,11.6419 22.7602,11.6619 22.8772,11.7009 C23.0322,11.7499 23.1682,11.8409 23.2782,11.9709 C23.3902,12.1029 23.4762,12.2659 23.5362,12.4579 C23.5952,12.6539 23.6262,12.8999 23.6262,13.1879 C23.6262,13.4399 23.5982,13.6609 23.5412,13.8419 C23.4742,14.0609 23.3762,14.2389 23.2522,14.3729 C23.1612,14.4729 23.0342,14.5519 22.8732,14.6089 C22.7552,14.6519 22.5882,14.6719 22.3832,14.6719 L21.3652,14.6719 L21.3652,11.6419 L22.3502,11.6419 Z M21.2072,11.4669 L21.2072,14.8469 L22.3832,14.8469 C22.6052,14.8469 22.7862,14.8239 22.9222,14.7759 C23.1042,14.7099 23.2522,14.6179 23.3622,14.4999 C23.5052,14.3449 23.6162,14.1439 23.6912,13.8989 C23.7532,13.6999 23.7842,13.4589 23.7842,13.1879 C23.7842,12.8799 23.7502,12.6149 23.6842,12.4019 C23.6192,12.1859 23.5212,12.0009 23.3922,11.8499 C23.2632,11.6989 23.1042,11.5919 22.9222,11.5319 C22.7872,11.4889 22.6012,11.4669 22.3502,11.4669 L21.2072,11.4669 Z"/>
      <path fill="#FFF" d="M22.1315,12.1859 C22.4195,12.1859 22.5415,12.2009 22.5925,12.2139 C22.6875,12.2379 22.7665,12.2809 22.8255,12.3419 C22.8875,12.4069 22.9355,12.4989 22.9715,12.6169 C23.0075,12.7399 23.0275,12.9199 23.0275,13.1589 C23.0275,13.3959 23.0075,13.5839 22.9695,13.7189 C22.9355,13.8459 22.8905,13.9359 22.8405,13.9879 C22.7875,14.0409 22.7205,14.0789 22.6375,14.1019 C22.5725,14.1199 22.4605,14.1279 22.3035,14.1279 L21.9475,14.1279 L21.9475,12.1859 L22.1315,12.1859 Z M21.7895,12.0099 L21.7895,14.3039 L22.3035,14.3039 C22.4755,14.3039 22.5985,14.2929 22.6775,14.2709 C22.7845,14.2429 22.8735,14.1909 22.9455,14.1179 C23.0205,14.0439 23.0765,13.9289 23.1215,13.7689 C23.1645,13.6169 23.1835,13.4169 23.1835,13.1589 C23.1835,12.8999 23.1625,12.7039 23.1215,12.5609 C23.0765,12.4149 23.0145,12.2979 22.9335,12.2139 C22.8535,12.1309 22.7495,12.0729 22.6275,12.0419 C22.5395,12.0209 22.3765,12.0099 22.1315,12.0099 L21.7895,12.0099 Z"/>
      <polygon fill="#FFF" points="24.363 14.76 24.363 11.555 26.499 11.555 26.499 12.097 24.945 12.097 24.945 12.809 26.391 12.809 26.391 13.351 24.945 13.351 24.945 14.217 26.555 14.217 26.555 14.76"/>
      <path fill="#FFF" d="M26.422,11.6419 L26.422,12.0099 L24.867,12.0099 L24.867,12.8959 L26.312,12.8959 L26.312,13.2639 L24.867,13.2639 L24.867,14.3039 L26.477,14.3039 L26.477,14.6719 L24.442,14.6719 L24.442,11.6419 L26.422,11.6419 Z M24.285,11.4669 L24.285,14.8469 L26.634,14.8469 L26.634,14.1279 L25.024,14.1279 L25.024,13.4379 L26.47,13.4379 L26.47,12.7199 L25.024,12.7199 L25.024,12.1859 L26.578,12.1859 L26.578,11.4669 L24.285,11.4669 Z M28.7413,13.4896 L28.3433,12.3026 L27.9543,13.4896 L28.7413,13.4896 Z M29.8133,14.7606 L29.1793,14.7606 L28.9283,14.0326 L27.7753,14.0326 L27.5363,14.7606 L26.9183,14.7606 L28.0403,11.5546 L28.6603,11.5546 L29.8133,14.7606 Z"/>
      <path fill="#FFF" d="M28.6066,11.6419 C28.6426,11.7449 29.6196,14.4539 29.6986,14.6719 L29.2356,14.6719 C29.2006,14.5769 28.9816,13.9449 28.9816,13.9449 L27.7196,13.9449 C27.7196,13.9449 27.5136,14.5749 27.4806,14.6719 L27.0336,14.6719 C27.1106,14.4549 28.0576,11.7459 28.0936,11.6419 L28.6066,11.6419 Z M27.9856,11.4669 L26.8026,14.8469047 L27.5906,14.8469 C27.5906,14.8489 27.7986,14.2169 27.8306,14.1199 L28.8736,14.1199 C28.9086,14.2149 29.1276,14.8469 29.1276,14.8469 L29.9306,14.8469047 L28.7126,11.4669 L27.9856,11.4669 Z"/>
      <path fill="#FFF" d="M28.3448,12.556 C28.4308,12.814 28.5768,13.249 28.6268,13.401 L28.0668,13.401 C28.1158,13.249 28.2588,12.814 28.3448,12.556 Z M27.8408,13.577 L28.8548,13.577 L28.3428,12.047 L27.8408,13.577 Z"/>
      <polygon fill="#FFF" points="30.301 14.76 30.301 11.581 30.883 11.581 30.883 14.217 32.332 14.217 32.332 14.76"/>
      <path fill="#FFF" d="M30.8038,11.6683 L30.8038,14.3043 L32.2548,14.3043 L32.2548,14.6723 L30.3798,14.6723 L30.3798,11.6683 L30.8038,11.6683 Z M30.2218,11.4923 L30.2218,14.8473 L32.4108,14.8473 L32.4108,14.1283 L30.9618,14.1283 L30.9618,11.4923 L30.2218,11.4923 Z"/>
    </g>
    <g fill-rule="nonzero">
      <rect width="49" height="32" fill="#2E77BC" rx="5"/>
      <path fill="#FFF" d="M4.25437927,4.39598824 L3.34658864,2.11066921 L2.44365251,4.39598824 L4.25437927,4.39598824 Z M24.2567414,3.48590697 C24.0744467,3.6002075 23.8588402,3.60401176 23.6005476,3.60401176 L21.9890225,3.60401176 L21.9890225,2.33062424 L23.6224765,2.33062424 C23.8534835,2.33062424 24.0948691,2.34151825 24.2515521,2.43403078 C24.4236356,2.51772436 24.5300997,2.69531385 24.5300997,2.94086115 C24.5300997,3.19142313 24.4286574,3.39322151 24.2567414,3.48590697 Z M35.7530233,4.39598824 L34.8350215,2.11066921 L33.922209,4.39598824 L35.7530233,4.39598824 Z M14.3231048,6.86979077 L12.9631765,6.86979077 L12.9581546,2.3797337 L11.0344353,6.86979077 L9.8696912,6.86979077 L7.94128477,2.37575652 L7.94128477,6.86979077 L5.24318975,6.86979077 L4.73346775,5.59104271 L1.97142729,5.59104271 L1.456516,6.86979077 L0.0155678637,6.86979077 L2.39125744,1.13678022 L4.36201515,1.13678022 L6.6183511,6.56475878 L6.6183511,1.13678022 L8.78328863,1.13678022 L10.5193566,5.0259381 L12.1143094,1.13678022 L14.3229373,1.13678022 L14.3229373,6.86979077 L14.3231048,6.86979077 Z M19.7432325,6.86979077 L15.3115805,6.86979077 L15.3115805,1.13678022 L19.7432325,1.13678022 L19.7432325,2.33062424 L16.6383643,2.33062424 L16.6383643,3.36399793 L19.6687411,3.36399793 L19.6687411,4.53916653 L16.6383643,4.53916653 L16.6383643,5.68407402 L19.7432325,5.68407402 L19.7432325,6.86979077 Z M25.9913028,2.68078852 C25.9913028,3.59501988 25.4008957,4.06709321 25.0565613,4.20888812 C25.3468267,4.32301574 25.5949082,4.5246412 25.7129226,4.69168252 C25.9000718,4.97682864 25.9323793,5.23154072 25.9323793,5.7435587 L25.9323793,6.86979077 L24.59438,6.86979077 L24.589358,6.14680961 C24.589358,5.80183296 24.6213308,5.30572368 24.3799451,5.02991527 C24.1862675,4.82828982 23.8906455,4.78454089 23.4132309,4.78454089 L21.9891899,4.78454089 L21.9891899,6.86979077 L20.6625735,6.86979077 L20.6625735,1.13678022 L23.7138749,1.13678022 C24.3916629,1.13678022 24.8913411,1.15545565 25.3200433,1.41137818 C25.7397061,1.66764655 25.9913028,2.04132803 25.9913028,2.68078852 Z M26.760824,1.13678022 L28.1143912,1.13678022 L28.1143912,6.86979077 L26.760824,6.86979077 L26.760824,1.13678022 Z M43.8173445,6.86979077 L41.9376504,6.86979077 L39.4230218,2.56683382 L39.4230218,6.86979077 L36.7215789,6.86979077 L36.2053284,5.59104271 L33.449649,5.59104271 L32.948799,6.86979077 L31.3963649,6.86979077 C30.7517213,6.86979077 29.9353292,6.72246239 29.4729803,6.23569082 C29.0067814,5.74891925 28.7640566,5.08974581 28.7640566,4.04703441 C28.7640566,3.19678368 28.9091893,2.41950545 29.4793414,1.80529138 C29.9080436,1.34774339 30.5796379,1.13678022 31.4937896,1.13678022 L32.7782221,1.13678022 L32.7782221,2.36520837 L31.5207404,2.36520837 C31.0367974,2.36520837 30.7634391,2.43956424 30.5001246,2.7049974 C30.2738047,2.94622168 30.1186282,3.40255922 30.1186282,4.00345841 C30.1186282,4.61767249 30.2368101,5.06069514 30.4835523,5.34981843 C30.6877759,5.5766903 31.0587263,5.64551271 31.4079152,5.64551271 L32.0036789,5.64551271 L33.8734967,1.13695314 L35.8611614,1.13695314 L38.1071188,6.55957116 L38.1071188,1.13695314 L40.1267562,1.13695314 L42.458588,5.1298634 L42.458588,1.13695314 L43.8173445,1.13695314 L43.8173445,6.86979077 Z M0.00016739599,7.99602283 L2.26671453,7.99602283 L2.77777571,6.72246239 L3.92193004,6.72246239 L4.43165205,7.99602283 L8.89142669,7.99602283 L8.89142669,7.02230676 L9.28949533,8 L11.6045874,8 L12.0026561,7.00778143 L12.0026561,7.99602283 L23.0856362,7.99602283 L23.0802796,5.90558533 L23.2948817,5.90558533 C23.4448689,5.91094588 23.4888942,5.92529829 23.4888942,6.18156667 L23.4888942,7.99602283 L29.2210487,7.99602283 L29.2210487,7.50925126 C29.6833976,7.76517379 30.4025325,7.99602283 31.3488242,7.99602283 L33.7601693,7.99602283 L34.2762524,6.72246239 L35.4204067,6.72246239 L35.9252742,7.99602283 L40.572198,7.99602283 L40.572198,6.7862701 L41.2760998,7.99602283 L45,7.99602283 L45,0 L41.3144336,0 L41.3144336,0.944319562 L40.7983505,0 L37.0166987,0 L37.0166987,0.944319562 L36.5427995,0 L31.4348661,0 C30.5796379,0 29.8281954,0.123292409 29.2210487,0.466885699 L29.2210487,0 L25.6958482,0 L25.6958482,0.466885699 C25.3096647,0.112744251 24.7830356,0 24.1976505,0 L11.3195113,0 L10.4552438,2.06519108 L9.56804292,0 L5.51152617,0 L5.51152617,0.944319562 L5.06591697,0 L1.60650316,0 L0,3.80166004 L0,7.99602283 L0.00016739599,7.99602283 Z M47,12.35965 L44.633997,12.35965 C44.3979537,12.35965 44.2410283,12.3688087 44.1086737,12.4629873 C43.9717325,12.5559563 43.9189872,12.693509 43.9189872,12.8752998 C43.9189872,13.0916514 44.0346337,13.2385355 44.2028617,13.3023005 C44.3398029,13.3525866 44.4870637,13.3671023 44.7031229,13.3671023 L45.4066664,13.3869748 C46.1165983,13.405465 46.5906506,13.5342046 46.8794393,13.8483638 C46.9321846,13.8919105 46.9636352,13.94116 47,13.9900637 L47,12.35965 Z M47,16.1376823 C46.6846749,16.6241278 46.0702414,16.8705475 45.2384384,16.8705475 L42.7313992,16.8705475 L42.7313992,15.6419051 L45.2281186,15.6419051 C45.4757922,15.6419051 45.6492619,15.607517 45.7534421,15.4998596 C45.8438626,15.4113835 45.9070914,15.2824711 45.9070914,15.1260827 C45.9070914,14.9591533 45.8438626,14.8267848 45.7483641,14.7471218 C45.6543399,14.6596824 45.5172349,14.6199374 45.2910199,14.6199374 C44.0723089,14.5763905 42.5517049,14.6596824 42.5517049,12.8462685 C42.5517049,12.0150772 43.0518022,11.1401663 44.4141704,11.1401663 L46.9998361,11.1401663 L47,10 L44.5974685,10 C43.8724665,10 43.3456689,10.1833459 42.9728482,10.4679555 L42.9728482,10 L39.4192572,10 C38.8511807,10 38.184002,10.1486121 37.8686768,10.4679555 L37.8686768,10 L31.5230256,10 L31.5230256,10.4679555 C31.0180141,10.0838104 30.1658992,10 29.7727667,10 L25.5872152,10 L25.5872152,10.4679555 C25.1876942,10.0597905 24.2992146,10 23.7575107,10 L19.0731722,10 L18.0012308,11.2238038 L16.9974322,10 L10,10 L10,17.9960255 L16.8657328,17.9960255 L17.9701077,16.7530402 L19.0107624,17.9960255 L23.2426708,18 L23.2426708,16.1191921 L23.6588999,16.1191921 C24.2202604,16.128178 24.882525,16.1043309 25.4669821,15.8380387 L25.4669821,17.9960255 L28.957508,17.9960255 L28.957508,15.9118263 L29.1260636,15.9118263 C29.3408122,15.9118263 29.362107,15.9213306 29.362107,16.1478777 L29.362107,17.9956799 L39.9660392,17.9956799 C40.6394425,17.9956799 41.3431498,17.8138892 41.7326787,17.4840048 L41.7326787,17.9956799 L45.0964193,17.9956799 C45.7961952,17.9956799 46.4799183,17.8921698 47,17.6270871 L47,16.1376823 Z M41.8217887,13.8483638 C42.0745402,14.1241603 42.210171,14.4725348 42.210171,15.0623178 C42.210171,16.2951074 41.480091,16.8705475 40.1707957,16.8705475 L37.6426256,16.8705475 L37.6426256,15.6419051 L40.1608036,15.6419051 C40.4070028,15.6419051 40.5814554,15.607517 40.6908774,15.4998596 C40.7801512,15.4113835 40.8443629,15.2824711 40.8443629,15.1260827 C40.8443629,14.9591533 40.7750732,14.826612 40.6859631,14.7471218 C40.5865334,14.6596824 40.4495923,14.6199374 40.2237048,14.6199374 C39.0095804,14.5763905 37.4893039,14.6596824 37.4893039,12.8462685 C37.4893039,12.0150772 37.9844871,11.1401663 39.3452173,11.1401663 L41.9477549,11.1401663 L41.9477549,12.3599957 L39.5665182,12.3599957 C39.330311,12.3599957 39.1769894,12.3691543 39.0462727,12.4633329 C38.9042536,12.5561291 38.8515083,12.6938546 38.8515083,12.8756454 C38.8515083,13.091997 38.9722327,13.2388811 39.1355466,13.3026461 C39.2724878,13.3529323 39.4194211,13.3674479 39.640722,13.3674479 L40.3395151,13.3873205 C41.0440414,13.405465 41.5277584,13.5342046 41.8217887,13.8483638 Z M30.1085674,13.4942866 C29.93477,13.6029809 29.7201852,13.6124852 29.4674338,13.6124852 L27.8906445,13.6124852 L27.8906445,12.3254347 L29.4888922,12.3254347 C29.7201852,12.3254347 29.9514782,12.3306188 30.1085674,12.428772 C30.2767954,12.5215682 30.377208,12.6992116 30.377208,12.9442488 C30.377208,13.1896317 30.2767954,13.3869748 30.1085674,13.4942866 Z M30.8925393,14.2074522 C31.181328,14.3201209 31.4176989,14.5216114 31.5282674,14.6885409 C31.7117293,14.968312 31.7382658,15.22942 31.7433438,15.7347014 L31.7433438,16.8705475 L30.440273,16.8705475 L30.440273,16.1535803 C30.440273,15.8090075 30.4715598,15.2983692 30.2304385,15.0320769 C30.0407521,14.826612 29.7516358,14.7775353 29.2779111,14.7775353 L27.8908083,14.7775353 L27.8908083,16.8705475 L26.5864272,16.8705475 L26.5864272,11.1399935 L29.5834078,11.1399935 C30.2404307,11.1399935 30.7190696,11.17058 31.1452908,11.4106059 C31.5549677,11.6715412 31.8126333,12.0292472 31.8126333,12.6829679 C31.8124695,13.5976239 31.234237,14.0643698 30.8925393,14.2074522 Z M32.5323936,11.1399935 L36.8648783,11.1399935 L36.8648783,12.3252619 L33.8249807,12.3252619 L33.8249807,13.3671023 L36.7905107,13.3671023 L36.7905107,14.536127 L33.8249807,14.536127 L33.8249807,15.6762933 L36.8648783,15.6814775 L36.8648783,16.8705475 L32.5323936,16.8705475 L32.5323936,11.1399935 Z M23.7742188,13.7845987 L22.0965255,13.7845987 L22.0965255,12.3254347 L23.7892889,12.3254347 C24.2579356,12.3254347 24.5830891,12.5269252 24.5830891,13.0278864 C24.5830891,13.5236635 24.2730057,13.7845987 23.7742188,13.7845987 Z M20.8037746,16.3493682 L18.8107562,14.0151204 L20.8037746,11.7551788 L20.8037746,16.3493682 Z M15.6568502,15.6762933 L12.4652688,15.6762933 L12.4652688,14.536127 L15.3149886,14.536127 L15.3149886,13.3671023 L12.4652688,13.3671023 L12.4652688,12.3252619 L15.7197513,12.3252619 L17.1396152,13.9952478 L15.6568502,15.6762933 Z M25.9769078,13.0278864 C25.9769078,14.6199374 24.8510745,14.9484394 23.7162318,14.9484394 L22.0965255,14.9484394 L22.0965255,16.8705475 L19.5734334,16.8705475 L17.9750219,14.9736688 L16.3140368,16.8705475 L11.1720265,16.8705475 L11.1720265,11.1399935 L16.3929909,11.1399935 L17.990092,13.0183821 L19.6412488,11.1399935 L23.7892889,11.1399935 C24.81946,11.1399935 25.9769078,11.4408468 25.9769078,13.0278864 Z" transform="translate(1 7)"/>
    </g>
  </g>
</svg>
